<?xml version="1.0" encoding="UTF-8" standalone="no"?>
<svg 
    id="svg8"
   viewBox="0 0 346.52395 63.977134"
   height="63.977139mm"
   width="346.52396mm"
    fill="none" 
    xmlns="http://www.w3.org/2000/svg"
    >
<path d="M4.1287 24.1593L7.43339 23.5265C7.52714 23.2921 7.59745 23.0226 7.64433 22.7179C7.6912 22.4132 7.73808 22.1203 7.78495 21.839C7.83183 21.5109 7.85526 21.1828 7.85526 20.8546C7.85526 20.5968 7.8787 20.2921 7.92558 19.9406C7.97245 19.6593 8.01933 19.3195 8.0662 18.9211C8.11308 18.4992 8.18339 18.0539 8.27714 17.5851L11.3006 17.7609C11.1834 18.2296 11.0896 18.6515 11.0193 19.0265C10.949 19.3781 10.8904 19.6828 10.8435 19.9406C10.7732 20.2218 10.7264 20.4679 10.7029 20.6789C10.6795 20.9367 10.6443 21.2062 10.5975 21.4875C10.5506 21.7453 10.492 22.05 10.4217 22.4015C10.3748 22.7531 10.3279 23.1632 10.281 23.632C10.8904 23.5382 11.4295 23.4679 11.8982 23.4211C12.367 23.3742 12.7654 23.3273 13.0935 23.2804C13.4685 23.2336 13.7967 23.2101 14.0779 23.2101C14.3592 23.1867 14.6639 23.1632 14.992 23.1398C15.2732 23.1164 15.6014 23.1046 15.9764 23.1046C16.3514 23.0812 16.7615 23.0578 17.2068 23.0343L18.2967 17.7609L22.1287 17.8312C21.9646 18.2531 21.824 18.6398 21.7068 18.9914C21.6131 19.3195 21.531 19.6125 21.4607 19.8703C21.367 20.1515 21.2967 20.4211 21.2498 20.6789C21.2029 20.9132 21.1443 21.1593 21.074 21.4171C21.0271 21.6281 20.9685 21.8742 20.8982 22.1554C20.8279 22.4132 20.7459 22.6711 20.6521 22.9289H24.2732L23.4998 26.55C23.3357 26.5031 23.1482 26.4562 22.9373 26.4093C22.7264 26.339 22.5271 26.2804 22.3396 26.2336C22.1053 26.1867 21.8592 26.1515 21.6014 26.1281C21.3904 26.1046 21.1795 26.0812 20.9685 26.0578C20.5701 26.0109 20.2654 26.0109 20.0545 26.0578C19.9607 26.4562 19.867 26.8195 19.7732 27.1476C19.7029 27.4757 19.6443 27.7687 19.5975 28.0265C19.5271 28.3078 19.4685 28.5656 19.4217 28.8C19.3748 29.0343 19.3162 29.2921 19.2459 29.5734C19.199 29.8312 19.1404 30.1242 19.0701 30.4523C18.9998 30.757 18.9178 31.1086 18.824 31.507C19.0818 31.507 19.3162 31.507 19.5271 31.507C19.7615 31.507 19.9725 31.4953 20.16 31.4718C20.3709 31.4484 20.5584 31.425 20.7225 31.4015C20.8865 31.4015 21.0857 31.3898 21.3201 31.3664C21.5076 31.3429 21.7303 31.3312 21.9881 31.3312C22.2693 31.3078 22.574 31.2726 22.9021 31.2257L21.6014 34.3546C21.4139 34.3781 21.2264 34.3898 21.0389 34.3898C20.8748 34.3664 20.7225 34.3429 20.5818 34.3195C20.4178 34.2961 20.2654 34.2726 20.1248 34.2492C19.9607 34.2257 19.7732 34.1906 19.5623 34.1437C19.3748 34.1203 19.1521 34.0968 18.8943 34.0734C18.66 34.05 18.3787 34.0265 18.0506 34.0031C18.0037 34.0734 17.9568 34.2023 17.91 34.3898C17.8631 34.5539 17.8162 34.7296 17.7693 34.9171C17.7225 35.1515 17.6756 35.3859 17.6287 35.6203L17.4529 36.4992C17.406 36.757 17.3475 37.05 17.2771 37.3781C17.2068 37.6828 17.1482 37.9992 17.1014 38.3273C16.4451 38.4445 15.9295 38.5382 15.5545 38.6086C15.1795 38.6554 14.8982 38.6906 14.7107 38.714C14.4764 38.7609 14.324 38.7726 14.2537 38.7492C14.2068 38.7023 14.2068 38.5031 14.2537 38.1515C14.3006 37.8468 14.3709 37.3781 14.4646 36.7453C14.5818 36.1125 14.7693 35.1984 15.0271 34.0031C14.7459 34.0265 14.4295 34.0617 14.0779 34.1086C13.7264 34.132 13.3982 34.1671 13.0935 34.214C12.7185 34.2609 12.3553 34.3078 12.0037 34.3546C11.6521 34.4015 11.2654 34.4601 10.8435 34.5304C10.492 34.5773 10.0935 34.6359 9.64823 34.7062C9.22636 34.7765 8.80448 34.8586 8.38261 34.9523L7.25761 39.5226L4.48026 39.7687C4.59745 39.2765 4.70292 38.8664 4.79667 38.5382C4.91386 38.1867 4.99589 37.9054 5.04276 37.6945C5.11308 37.4367 5.15995 37.2375 5.18339 37.0968C5.20683 36.9796 5.24198 36.8156 5.28886 36.6046C5.33573 36.4171 5.37089 36.1945 5.39433 35.9367C5.4412 35.6789 5.48808 35.3742 5.53495 35.0226C5.20683 35.1398 4.90214 35.2453 4.62089 35.339C4.33964 35.4328 4.10526 35.5031 3.91776 35.55C3.68339 35.6203 3.47245 35.6789 3.28495 35.7257C3.09745 35.7726 2.89823 35.8312 2.68729 35.9015C2.49979 35.9484 2.30058 36.0187 2.08964 36.1125C1.8787 36.2062 1.66776 36.3117 1.45683 36.4289L1.91386 32.9484L5.78104 32.5968C5.87479 32.175 5.95683 31.8 6.02714 31.4718C6.12089 31.1203 6.1912 30.8156 6.23808 30.5578C6.30839 30.2765 6.35526 30.007 6.3787 29.7492C6.42558 29.4679 6.48417 29.1632 6.55448 28.8351C6.60136 28.5539 6.64823 28.2375 6.69511 27.8859C6.76542 27.5109 6.83573 27.1007 6.90604 26.6554C6.64823 26.6789 6.41386 26.7023 6.20292 26.7257C6.01542 26.7492 5.82792 26.7726 5.64042 26.7961C5.42948 26.8429 5.24198 26.8781 5.07792 26.9015C4.96073 26.925 4.80839 26.9718 4.62089 27.0421C4.45683 27.089 4.23417 27.1593 3.95292 27.2531C3.69511 27.3468 3.3787 27.464 3.0037 27.6046L4.1287 24.1593ZM8.98026 32.5265C9.5662 32.4796 10.0701 32.4328 10.492 32.3859C10.9373 32.3156 11.3006 32.257 11.5818 32.2101L12.4256 32.1046L13.2693 31.9992C13.5506 31.9523 13.8904 31.9171 14.2889 31.8937C14.7107 31.8468 15.1912 31.8 15.7303 31.7531L16.8553 25.7765C16.2928 25.8234 15.7889 25.8586 15.3435 25.882C14.8982 25.882 14.5115 25.8937 14.1834 25.9171C13.8084 25.9406 13.4803 25.9523 13.199 25.9523C12.9178 25.9757 12.6131 25.9992 12.285 26.0226C12.0037 26.0461 11.6756 26.0695 11.3006 26.0929C10.9256 26.0929 10.5271 26.1046 10.1053 26.1281L8.98026 32.5265ZM27.4373 16.0734C27.8826 16.1906 28.3045 16.2843 28.7029 16.3546C29.1014 16.4015 29.4529 16.4484 29.7576 16.4953C30.1092 16.5421 30.4373 16.5773 30.742 16.6007C31.0701 16.6242 31.4568 16.6476 31.9021 16.6711C32.3006 16.6945 32.781 16.7062 33.3435 16.7062C33.906 16.7062 34.574 16.7062 35.3475 16.7062C34.6678 18.3234 34.117 19.6945 33.6951 20.8195C33.2732 21.9211 32.9451 22.8351 32.7107 23.5617C32.4529 24.4054 32.2654 25.0968 32.1482 25.6359C32.0545 26.175 31.9373 26.8312 31.7967 27.6046C31.6795 28.2843 31.5154 29.1164 31.3045 30.1007C31.0935 31.0851 30.8592 32.257 30.6014 33.6164L27.5076 33.4757C27.6951 32.2336 27.824 31.1789 27.8943 30.3117C27.9646 29.4211 28.0232 28.6828 28.0701 28.0968C28.117 27.4171 28.1404 26.8546 28.1404 26.4093C28.1404 25.9406 28.1053 25.2375 28.035 24.3C27.9881 23.5265 27.9178 22.4836 27.824 21.1711C27.7303 19.8351 27.6014 18.1359 27.4373 16.0734ZM31.3045 36.2882C31.4685 36.5461 31.5623 36.839 31.5857 37.1671C31.6326 37.4718 31.6092 37.7882 31.5154 38.1164C31.4451 38.4211 31.2928 38.714 31.0584 38.9953C30.8475 39.2765 30.5545 39.4992 30.1795 39.6632C29.4295 40.0148 28.7615 40.1086 28.1756 39.9445C27.5896 39.757 27.156 39.4523 26.8748 39.0304C26.7107 38.7961 26.617 38.5382 26.5935 38.257C26.5935 37.9523 26.6521 37.6593 26.7693 37.3781C26.8865 37.0734 27.074 36.7921 27.3318 36.5343C27.5896 36.2765 27.9178 36.0656 28.3162 35.9015C29.0896 35.5734 29.7225 35.4562 30.2146 35.55C30.7303 35.6437 31.0935 35.8898 31.3045 36.2882ZM57.531 15.4406C58.3514 15.4406 59.0896 15.5812 59.7459 15.8625C60.4256 16.1203 61.0467 16.4132 61.6092 16.7414C62.1951 17.0695 62.7459 17.3742 63.2615 17.6554C63.7771 17.9132 64.3045 18.0421 64.8435 18.0421C65.2654 18.0187 65.7459 17.9601 66.285 17.8664C66.7537 17.7726 67.2928 17.632 67.9021 17.4445C68.535 17.2336 69.2381 16.9289 70.0115 16.5304C69.2381 17.2804 68.6053 17.9132 68.1131 18.4289C67.6443 18.9211 67.281 19.3312 67.0232 19.6593C66.7185 20.0343 66.4959 20.3273 66.3553 20.5382C66.2146 20.7961 66.0037 21.1828 65.7225 21.6984C65.4646 22.1671 65.1131 22.8 64.6678 23.5968C64.2225 24.3703 63.66 25.3898 62.9803 26.6554C62.9803 25.0382 62.8162 23.7843 62.4881 22.8937C62.1834 22.0031 61.8435 21.3234 61.4685 20.8546C61.0232 20.3156 60.5193 19.9757 59.9568 19.8351C59.4412 19.7648 58.9256 19.8586 58.41 20.1164C57.8943 20.3507 57.3787 20.7023 56.8631 21.1711C56.3709 21.6398 55.8904 22.2023 55.4217 22.8586C54.9764 23.4914 54.5662 24.1593 54.1912 24.8625C53.8396 25.5656 53.5467 26.2804 53.3123 27.007C53.0779 27.7101 52.9256 28.3664 52.8553 28.9757C52.785 29.5148 52.7732 30.1476 52.8201 30.8742C52.867 31.5773 52.9725 32.3039 53.1365 33.0539C53.3006 33.7804 53.5115 34.4953 53.7693 35.1984C54.0271 35.9015 54.3435 36.5343 54.7185 37.0968C55.117 37.6359 55.5623 38.0812 56.0545 38.4328C56.5467 38.7609 57.1092 38.9132 57.742 38.8898C58.4451 38.8429 59.1365 38.632 59.8162 38.257C60.4021 37.9523 60.9998 37.4836 61.6092 36.8507C62.2185 36.1945 62.7459 35.2687 63.1912 34.0734L68.3943 35.0226C66.8943 36.8507 65.4295 38.2218 63.9998 39.1359C62.5935 40.05 61.3279 40.6945 60.2029 41.0695C58.8904 41.4914 57.6482 41.6906 56.4764 41.6671C54.9998 41.5031 53.617 41.0578 52.3279 40.3312C51.0389 39.6046 49.9256 38.7257 48.9881 37.6945C48.074 36.6398 47.3592 35.4914 46.8435 34.2492C46.3279 33.007 46.1053 31.7882 46.1756 30.5929C46.2225 29.7961 46.3865 28.8703 46.6678 27.8156C46.949 26.7375 47.324 25.6359 47.7928 24.5109C48.285 23.3859 48.8709 22.2843 49.5506 21.2062C50.2303 20.1281 50.9803 19.1671 51.8006 18.3234C52.6209 17.4562 53.5115 16.7648 54.4725 16.2492C55.4568 15.7101 56.4764 15.4406 57.531 15.4406ZM64.8084 16.1789C66.3787 16.2492 67.5975 16.2843 68.4646 16.2843H69.7654C70.1404 16.2843 70.6092 16.2726 71.1717 16.2492C71.6404 16.2257 72.2381 16.214 72.9646 16.214C73.6912 16.1906 74.5584 16.1554 75.5662 16.1086C75.0975 16.4367 74.7225 16.7531 74.4412 17.0578C74.16 17.3625 73.9373 17.632 73.7732 17.8664C73.5857 18.1476 73.4568 18.4054 73.3865 18.6398C73.2225 19.2492 73.1521 20.0812 73.1756 21.1359C73.2225 22.1671 73.3279 23.2921 73.492 24.5109C73.656 25.7062 73.8553 26.925 74.0896 28.1671C74.324 29.4093 74.5584 30.5343 74.7928 31.5421C75.0506 32.55 75.2732 33.382 75.4607 34.0382C75.6717 34.6711 75.824 34.9875 75.9178 34.9875C76.0115 34.9875 76.1873 34.6476 76.4451 33.9679C76.7264 33.2882 77.0428 32.4328 77.3943 31.4015C77.7459 30.3468 78.1092 29.2101 78.4842 27.9914C78.8592 26.7492 79.199 25.5773 79.5037 24.4757C79.8318 23.3507 80.1014 22.3898 80.3123 21.5929C80.5232 20.7726 80.6287 20.2687 80.6287 20.0812C80.6053 19.8234 80.5232 19.5539 80.3826 19.2726C80.2654 19.0148 80.0545 18.7218 79.7498 18.3937C79.4685 18.0421 79.0701 17.6437 78.5545 17.1984C79.281 17.175 79.9021 17.1515 80.4178 17.1281C80.9568 17.1046 81.4139 17.0929 81.7889 17.0929H82.8787H88.5037C87.9178 17.4914 87.4139 17.8781 86.992 18.2531C86.5935 18.6281 86.2654 18.9796 86.0076 19.3078C85.7029 19.6828 85.4451 20.0343 85.2342 20.3625C84.9998 20.8546 84.6131 21.9211 84.074 23.5617C83.8396 24.2648 83.5701 25.1203 83.2654 26.1281C82.9607 27.1359 82.5975 28.3429 82.1756 29.7492C81.7537 31.1554 81.285 32.7843 80.7693 34.6359C80.2537 36.464 79.6678 38.55 79.0115 40.8937L74.1248 41.5265C73.5389 39.6984 73.0232 38.0343 72.5779 36.5343C72.156 35.0109 71.781 33.7101 71.4529 32.632C71.0779 31.3664 70.7615 30.2296 70.5037 29.2218C70.1521 28.0031 69.8475 26.7726 69.5896 25.5304C69.3553 24.2648 69.1443 23.1281 68.9568 22.1203C68.7928 21.089 68.6404 20.2336 68.4998 19.5539C68.3592 18.8742 68.2068 18.4757 68.0428 18.3586C67.9021 18.2414 67.6912 18.089 67.41 17.9015C67.1521 17.7375 66.824 17.5265 66.4256 17.2687C66.0037 16.9875 65.4646 16.6242 64.8084 16.1789ZM85.4451 38.3976C88.492 38.5148 91.0115 38.6086 93.0037 38.6789C94.9959 38.7257 96.5896 38.7609 97.785 38.7843C99.1912 38.8078 100.269 38.8195 101.019 38.8195C101.793 38.7961 102.929 38.7492 104.429 38.6789C105.695 38.632 107.418 38.55 109.597 38.4328C111.801 38.3156 114.59 38.1632 117.965 37.9757C117.777 38.5617 117.66 39.0304 117.613 39.382C117.59 39.5695 117.578 39.7336 117.578 39.8742C117.578 40.0617 117.59 40.2726 117.613 40.507C117.66 40.9523 117.777 41.4211 117.965 41.9132C115.269 41.7726 112.949 41.6671 111.004 41.5968C109.082 41.55 107.488 41.5148 106.222 41.4914C104.746 41.4679 103.515 41.4679 102.531 41.4914C101.547 41.5617 100.269 41.6437 98.699 41.7375C97.3631 41.8312 95.6521 41.9601 93.5662 42.1242C91.4803 42.3117 88.9373 42.5461 85.9373 42.8273L85.4451 38.3976ZM116.699 16.2492C117.59 16.4601 118.387 16.6242 119.09 16.7414C119.816 16.8351 120.426 16.9054 120.918 16.9523C121.504 17.0226 122.019 17.0461 122.465 17.0226C123.027 16.9992 123.73 16.9171 124.574 16.7765C125.418 16.6359 126.308 16.4953 127.246 16.3546C128.183 16.214 129.109 16.0968 130.023 16.0031C130.937 15.9093 131.734 15.8976 132.414 15.9679C133.094 16.0382 133.808 16.2023 134.558 16.4601C135.308 16.6945 136.012 17.0226 136.668 17.4445C137.324 17.8429 137.887 18.3351 138.355 18.9211C138.847 19.507 139.152 20.1867 139.269 20.9601C139.387 21.7101 139.316 22.5187 139.058 23.3859C138.801 24.2296 138.39 25.0617 137.828 25.882C137.265 26.6789 136.562 27.4171 135.719 28.0968C134.875 28.7765 133.937 29.3273 132.906 29.7492C132.086 30.0539 131.195 30.2882 130.234 30.4523C129.414 30.5929 128.453 30.6867 127.351 30.7336C126.273 30.757 125.125 30.6398 123.906 30.382C123.742 31.0617 123.648 31.6945 123.625 32.2804C123.625 32.8429 123.648 33.3468 123.695 33.7921C123.765 34.3078 123.859 34.7765 123.976 35.1984C124.117 35.6203 124.293 36.1125 124.504 36.675C124.691 37.1437 124.902 37.7179 125.137 38.3976C125.394 39.0539 125.699 39.7921 126.051 40.6125C125.629 40.6125 125.219 40.6242 124.82 40.6476C124.422 40.6476 124.058 40.6593 123.73 40.6828C123.355 40.7062 123.004 40.7296 122.676 40.7531C122.301 40.7765 121.879 40.8234 121.41 40.8937C121.012 40.9406 120.508 41.0109 119.898 41.1046C119.312 41.1984 118.644 41.3156 117.894 41.4562C118.387 40.7531 118.773 40.1086 119.054 39.5226C119.359 38.9132 119.582 38.3859 119.722 37.9406C119.887 37.425 119.992 36.9562 120.039 36.5343C120.062 36.1828 120.062 35.5617 120.039 34.6711C120.039 33.7804 120.027 32.7492 120.004 31.5773C119.98 30.4054 119.945 29.175 119.898 27.8859C119.851 26.5968 119.793 25.3898 119.722 24.2648C119.652 23.1164 119.57 22.132 119.476 21.3117C119.406 20.4914 119.336 19.9523 119.265 19.6945C119.172 19.3898 119.008 19.0617 118.773 18.7101C118.586 18.4054 118.316 18.0539 117.965 17.6554C117.637 17.2336 117.215 16.7648 116.699 16.2492ZM123.976 23.175C123.953 23.4093 123.941 23.6554 123.941 23.9132C123.941 24.4054 123.976 25.0382 124.047 25.8117C124.211 26.2101 124.41 26.5382 124.644 26.7961C124.902 27.0539 125.172 27.2531 125.453 27.3937C125.758 27.5343 126.062 27.6281 126.367 27.675C126.672 27.7218 126.976 27.7453 127.281 27.7453C127.984 27.7218 128.722 27.5578 129.496 27.2531C130.527 26.8078 131.254 26.175 131.676 25.3546C132.097 24.5343 132.32 23.6906 132.344 22.8234C132.367 21.9562 132.215 21.1593 131.887 20.4328C131.582 19.7062 131.207 19.214 130.762 18.9562C130.387 18.7921 129.906 18.7218 129.32 18.7453C128.804 18.7687 128.16 18.8976 127.387 19.132C126.613 19.3664 125.664 19.7882 124.539 20.3976C124.422 20.8195 124.328 21.1945 124.258 21.5226C124.187 21.8507 124.129 22.1437 124.082 22.4015C124.035 22.6828 124 22.9406 123.976 23.175ZM146.371 25.6711C146.98 25.6711 147.613 25.7882 148.269 26.0226C148.926 26.2336 149.558 26.5148 150.168 26.8664C150.777 27.1945 151.328 27.5578 151.82 27.9562C152.336 28.3312 152.758 28.6945 153.086 29.0461C153.672 29.6789 154.07 30.5343 154.281 31.6125C154.515 32.6671 154.562 33.757 154.422 34.882C154.281 35.9836 153.953 37.0265 153.437 38.0109C152.922 38.9953 152.207 39.7218 151.293 40.1906C150.637 40.5187 149.992 40.7765 149.359 40.964C148.726 41.1515 148.117 41.2921 147.531 41.3859C146.945 41.4796 146.394 41.5265 145.879 41.5265C145.363 41.5265 144.918 41.5148 144.543 41.4914C143.84 41.4445 143.101 41.1984 142.328 40.7531C141.578 40.3078 140.863 39.757 140.183 39.1007C139.527 38.4445 138.965 37.7296 138.496 36.9562C138.027 36.1593 137.746 35.4093 137.652 34.7062C137.512 33.7453 137.488 32.7375 137.582 31.6828C137.676 30.6281 138.015 29.6554 138.601 28.7648C139.211 27.8742 140.125 27.1359 141.344 26.55C142.586 25.964 144.262 25.6711 146.371 25.6711ZM145.211 39.3117C145.469 39.3586 145.82 39.3 146.265 39.1359C146.711 38.9484 147.144 38.6554 147.566 38.257C148.012 37.8586 148.398 37.3546 148.726 36.7453C149.078 36.1125 149.289 35.3507 149.359 34.4601C149.429 33.5929 149.429 32.7961 149.359 32.0695C149.312 31.3429 149.207 30.7101 149.043 30.1711C148.879 29.6086 148.691 29.1515 148.48 28.8C148.269 28.4484 148.047 28.2023 147.812 28.0617C147.414 27.8507 146.933 27.6867 146.371 27.5695C145.808 27.4289 145.328 27.4523 144.929 27.6398C144.742 27.7336 144.508 27.9328 144.226 28.2375C143.945 28.5421 143.664 28.9289 143.383 29.3976C143.101 29.8429 142.844 30.3586 142.609 30.9445C142.398 31.5304 142.246 32.1398 142.152 32.7726C142.058 33.4054 142.035 34.0851 142.082 34.8117C142.152 35.5382 142.304 36.2296 142.539 36.8859C142.773 37.5187 143.101 38.0695 143.523 38.5382C143.969 38.9836 144.531 39.2414 145.211 39.3117ZM155.758 24.5812C156.203 24.6046 156.601 24.6164 156.953 24.6164C157.328 24.5929 157.644 24.5695 157.902 24.5461C158.207 24.5226 158.476 24.4992 158.711 24.4757C159.062 24.4289 159.426 24.3703 159.801 24.3C160.129 24.2531 160.469 24.1945 160.82 24.1242C161.195 24.0304 161.558 23.925 161.91 23.8078C161.769 24.1593 161.652 24.464 161.558 24.7218C161.465 24.9796 161.394 25.2023 161.347 25.3898C161.277 25.6007 161.242 25.7765 161.242 25.9171C161.219 26.0812 161.207 26.2804 161.207 26.5148C161.183 26.9132 161.183 27.5578 161.207 28.4484C162.426 27.3937 163.445 26.5734 164.265 25.9875C165.109 25.4015 165.777 24.9445 166.269 24.6164C166.855 24.2414 167.312 23.9953 167.64 23.8781C168.508 23.7375 169.269 23.9367 169.926 24.4757C170.207 24.7101 170.476 25.0265 170.734 25.425C170.992 25.8 171.215 26.3039 171.402 26.9367C171.59 27.5695 171.73 28.3312 171.824 29.2218C171.918 30.089 171.929 31.132 171.859 32.3507C171.367 32.3976 170.922 32.4445 170.523 32.4914C170.148 32.5382 169.832 32.5734 169.574 32.5968C169.269 32.6437 168.988 32.6671 168.73 32.6671L167.781 32.7726C167.453 32.8195 167.043 32.8664 166.551 32.9132C166.082 32.9367 165.508 32.9836 164.828 33.0539C165.812 32.257 166.445 31.5656 166.726 30.9796C167.031 30.3703 167.16 29.8664 167.113 29.4679C167.066 29.0226 166.855 28.6359 166.48 28.3078C166.035 28.05 165.554 27.9562 165.039 28.0265C164.594 28.0734 164.078 28.2726 163.492 28.6242C162.906 28.9757 162.285 29.632 161.629 30.5929C161.676 32.0929 161.722 33.3351 161.769 34.3195C161.84 35.3039 161.898 36.1007 161.945 36.7101C162.015 37.4132 162.074 37.964 162.121 38.3625C162.191 38.714 162.332 39.089 162.543 39.4875C162.707 39.8156 162.941 40.1789 163.246 40.5773C163.551 40.9757 163.949 41.3742 164.441 41.7726C163.41 41.7257 162.566 41.7257 161.91 41.7726C161.512 41.7961 161.16 41.8195 160.855 41.8429C160.527 41.8898 160.176 41.9367 159.801 41.9836C159.472 42.0304 159.086 42.0773 158.64 42.1242C158.219 42.1945 157.75 42.2648 157.234 42.3351C157.422 42.0773 157.574 41.7726 157.691 41.4211C157.808 41.0929 157.902 40.7765 157.972 40.4718C158.066 40.1203 158.137 39.757 158.183 39.382C158.207 39.0539 158.219 38.5617 158.219 37.9054C158.242 37.2492 158.23 36.5109 158.183 35.6906C158.16 34.8468 158.125 33.9796 158.078 33.089C158.031 32.175 157.972 31.3195 157.902 30.5226C157.832 29.7257 157.75 29.0343 157.656 28.4484C157.586 27.839 157.504 27.4171 157.41 27.1828C157.293 26.9015 157.152 26.6203 156.988 26.339C156.847 26.0812 156.672 25.8117 156.461 25.5304C156.25 25.2257 156.015 24.9093 155.758 24.5812ZM172.914 19.2726C173.617 19.3429 174.203 19.4015 174.672 19.4484C175.164 19.4953 175.562 19.5304 175.867 19.5539C176.219 19.5773 176.5 19.589 176.711 19.589C176.922 19.6125 177.203 19.6125 177.554 19.589C177.859 19.5656 178.258 19.5421 178.75 19.5187C179.242 19.4718 179.863 19.4015 180.613 19.3078C180.449 19.5421 180.32 19.7531 180.226 19.9406C180.133 20.1046 180.051 20.257 179.98 20.3976L179.769 20.8195C179.722 20.9601 179.676 21.1007 179.629 21.2414C179.582 21.3586 179.535 21.4992 179.488 21.6632C179.465 21.8273 179.441 22.0031 179.418 22.1906H184.832L184.34 25.0382L179.383 24.757C179.265 25.9523 179.183 26.8781 179.137 27.5343C179.09 28.1906 179.043 28.6711 178.996 28.9757L178.926 29.6086C178.855 30.4992 178.785 31.4718 178.715 32.5265C178.644 33.5578 178.621 34.5187 178.644 35.4093C178.668 36.3 178.75 37.05 178.89 37.6593C179.031 38.2453 179.277 38.5382 179.629 38.5382C179.98 38.5382 180.308 38.4445 180.613 38.257C180.918 38.0695 181.176 37.8468 181.387 37.589C181.621 37.3312 181.797 37.0734 181.914 36.8156C182.031 36.5343 182.09 36.3234 182.09 36.1828C182.09 36.0421 182.054 35.8781 181.984 35.6906C181.867 35.339 181.656 34.8937 181.351 34.3546C182.031 34.5187 182.629 34.6828 183.144 34.8468C183.402 34.9406 183.637 35.0343 183.847 35.1281C184.082 35.2218 184.351 35.3273 184.656 35.4445C184.914 35.5617 185.242 35.7023 185.64 35.8664C186.039 36.0304 186.508 36.2296 187.047 36.464C186.531 36.5578 186.156 36.7101 185.922 36.9211C185.781 37.0148 185.676 37.1203 185.605 37.2375C185.441 37.4953 185.254 37.8468 185.043 38.2921C184.832 38.714 184.515 39.1359 184.094 39.5578C183.672 39.9796 183.097 40.3546 182.371 40.6828C181.668 41.0109 180.719 41.1984 179.523 41.2453C178.281 41.2921 177.332 41.0812 176.676 40.6125C176.043 40.1437 175.574 39.6046 175.269 38.9953C174.988 38.3625 174.824 37.7414 174.777 37.132C174.73 36.5226 174.695 36.1125 174.672 35.9015C174.648 35.6906 174.648 35.1632 174.672 34.3195C174.695 33.4757 174.73 32.55 174.777 31.5421C174.824 30.5109 174.871 29.5265 174.918 28.589C174.965 27.6281 174.988 26.925 174.988 26.4796C174.988 26.2453 175 25.9992 175.023 25.7414C175.023 25.5304 175.023 25.3078 175.023 25.0734C175.047 24.8156 175.058 24.5695 175.058 24.3351L169.961 24.3L169.75 22.2961L174.883 22.4367C174.836 22.1789 174.777 21.9445 174.707 21.7336C174.66 21.4992 174.613 21.3117 174.566 21.1711C174.496 21.007 174.426 20.8664 174.355 20.7492C174.262 20.632 174.156 20.5031 174.039 20.3625C173.922 20.2453 173.769 20.0929 173.582 19.9054C173.394 19.7179 173.172 19.507 172.914 19.2726ZM188.242 27.1828C188.359 27.0421 188.429 26.7843 188.453 26.4093C188.5 26.0109 188.594 25.5656 188.734 25.0734C188.898 24.5812 189.168 24.0656 189.543 23.5265C189.918 22.9875 190.527 22.4836 191.371 22.0148C192.191 21.5461 192.988 21.2648 193.762 21.1711C194.535 21.0773 195.273 21.1125 195.976 21.2765C196.679 21.4406 197.336 21.6984 197.945 22.05C198.578 22.4015 199.152 22.7882 199.668 23.2101C200.019 23.4914 200.301 23.9015 200.512 24.4406C200.722 24.9562 200.887 25.5421 201.004 26.1984C201.121 26.8546 201.203 27.5461 201.25 28.2726C201.32 28.9757 201.367 29.6671 201.39 30.3468C201.414 31.0031 201.426 31.6125 201.426 32.175C201.449 32.714 201.496 33.1593 201.566 33.5109C201.66 34.0265 201.824 34.4718 202.058 34.8468C202.293 35.1984 202.551 35.5031 202.832 35.7609C203.113 35.9953 203.394 36.1828 203.676 36.3234C203.957 36.464 204.203 36.5695 204.414 36.6398C204.554 36.7101 204.683 36.757 204.801 36.7804C205.035 36.8742 205.199 36.8742 205.293 36.7804C205.152 37.1086 205.023 37.3898 204.906 37.6242C204.789 37.8586 204.695 38.0578 204.625 38.2218C204.531 38.4093 204.449 38.5617 204.379 38.6789C204.308 38.8195 204.226 38.9484 204.133 39.0656C204.062 39.1828 203.969 39.3117 203.851 39.4523C203.734 39.5929 203.617 39.7453 203.5 39.9093C203.195 39.7921 202.902 39.6515 202.621 39.4875C202.363 39.3234 202.129 39.1711 201.918 39.0304C201.66 38.8664 201.426 38.7023 201.215 38.5382C201.004 38.3742 200.804 38.1867 200.617 37.9757C200.453 37.7882 200.277 37.589 200.09 37.3781C199.926 37.1671 199.785 36.9328 199.668 36.675C199.527 36.9796 199.187 37.4132 198.648 37.9757C198.133 38.5382 197.453 39.0539 196.609 39.5226C195.765 39.9679 194.781 40.2843 193.656 40.4718C192.554 40.6593 191.336 40.5304 190 40.0851C189.414 39.8976 188.863 39.6281 188.347 39.2765C187.832 38.9015 187.387 38.4562 187.012 37.9406C186.66 37.425 186.402 36.839 186.238 36.1828C186.097 35.5031 186.109 34.7531 186.273 33.9328C186.437 33.1125 186.73 32.4211 187.152 31.8586C187.574 31.2961 188.078 30.839 188.664 30.4875C189.25 30.1359 189.906 29.8664 190.633 29.6789C191.359 29.4914 192.109 29.3625 192.883 29.2921C193.492 29.2687 194.101 29.3039 194.711 29.3976C195.226 29.4914 195.765 29.6671 196.328 29.925C196.89 30.1593 197.371 30.5226 197.769 31.0148C197.746 29.7726 197.699 28.7882 197.629 28.0617C197.582 27.3117 197.535 26.7375 197.488 26.339C197.394 25.8703 197.312 25.5421 197.242 25.3546C197.125 25.1906 196.996 25.0031 196.855 24.7921C196.738 24.5812 196.586 24.3937 196.398 24.2296C196.211 24.0421 195.976 23.8898 195.695 23.7726C195.414 23.6554 195.086 23.6086 194.711 23.632C194.312 23.6554 193.996 23.7609 193.762 23.9484C193.527 24.1359 193.34 24.3586 193.199 24.6164C193.082 24.8507 193.012 25.1086 192.988 25.3898C192.965 25.6711 192.976 25.9171 193.023 26.1281C193.07 26.2687 193.14 26.4211 193.234 26.5851C193.328 26.7257 193.457 26.8781 193.621 27.0421C193.785 27.2062 194.008 27.3468 194.289 27.464C193.75 27.5343 193.269 27.5929 192.847 27.6398C192.426 27.6632 192.062 27.6984 191.758 27.7453C191.406 27.7921 191.101 27.8273 190.844 27.8507C190.586 27.8742 190.281 27.9211 189.929 27.9914C189.625 28.0382 189.25 28.0968 188.804 28.1671C188.359 28.2375 187.844 28.3312 187.258 28.4484C187.398 28.2843 187.527 28.132 187.644 27.9914C187.762 27.8273 187.867 27.6867 187.961 27.5695C188.054 27.4289 188.148 27.3 188.242 27.1828ZM193.515 31.3664C193.094 31.3898 192.672 31.4953 192.25 31.6828C191.828 31.8468 191.453 32.0929 191.125 32.4211C190.797 32.7257 190.515 33.089 190.281 33.5109C190.07 33.9093 189.965 34.3546 189.965 34.8468C189.965 35.339 190.082 35.7726 190.316 36.1476C190.574 36.4992 190.902 36.7921 191.301 37.0265C191.722 37.2609 192.168 37.4015 192.637 37.4484C193.129 37.4953 193.609 37.4484 194.078 37.3078C194.523 37.1437 194.945 36.8859 195.344 36.5343C195.742 36.1593 196.082 35.7609 196.363 35.339C196.644 34.8937 196.844 34.4601 196.961 34.0382C197.078 33.5929 197.09 33.2296 196.996 32.9484C196.808 32.339 196.387 31.9171 195.73 31.6828C195.074 31.425 194.336 31.3195 193.515 31.3664ZM205.75 42.4054C205.984 42.0539 206.172 41.7257 206.312 41.4211C206.453 41.1164 206.57 40.8586 206.664 40.6476C206.758 40.3898 206.828 40.1554 206.875 39.9445C206.898 39.8039 206.91 39.3937 206.91 38.714C206.91 38.0343 206.887 37.1789 206.84 36.1476C206.816 35.1164 206.781 33.9562 206.734 32.6671C206.711 31.3781 206.664 30.0656 206.594 28.7296C206.547 27.3937 206.488 26.0929 206.418 24.8273C206.371 23.5617 206.324 22.425 206.277 21.4171C206.23 20.3859 206.183 19.5421 206.137 18.8859C206.09 18.2296 206.054 17.8546 206.031 17.7609C205.984 17.6203 205.902 17.4796 205.785 17.339C205.551 17.0578 205.152 16.7882 204.59 16.5304C205.785 16.2257 206.699 15.9796 207.332 15.7921C207.707 15.6984 208.035 15.6046 208.316 15.5109C208.574 15.4171 208.832 15.3234 209.09 15.2296C209.301 15.1359 209.535 15.0304 209.793 14.9132C210.051 14.7726 210.285 14.6203 210.496 14.4562C210.379 15.1359 210.285 15.7921 210.215 16.425C210.144 17.0578 210.086 17.6437 210.039 18.1828C209.992 18.7921 209.969 19.3781 209.969 19.9406C209.851 21.089 209.781 22.3429 209.758 23.7023C209.758 25.0382 209.769 26.3976 209.793 27.7804C209.816 29.1632 209.863 30.5109 209.933 31.8234C210.004 33.1359 210.074 34.3312 210.144 35.4093C210.238 36.464 210.32 37.3664 210.39 38.1164C210.484 38.8429 210.554 39.3117 210.601 39.5226C210.695 39.8742 210.789 40.214 210.883 40.5421C210.976 40.8234 211.082 41.1164 211.199 41.4211C211.316 41.7492 211.457 42.007 211.621 42.1945H208.211C207.906 42.1945 207.613 42.2062 207.332 42.2296C207.074 42.2531 206.804 42.2765 206.523 42.3C206.242 42.3234 205.984 42.3586 205.75 42.4054Z" fill="#3D8A98"/>
<path d="M239.029 9.97419C239.051 12.2282 237.706 10.846 237.724 12.112C237.732 12.6906 238.446 13.2067 238.833 13.9541C239.292 14.842 239.425 15.9808 239.277 16.8813C239.181 17.467 238.987 18.0567 238.726 18.5954C238.017 20.059 236.888 20.8611 235.087 20.7184C233.376 20.5827 231.651 20.597 229.935 20.5123C229.316 20.4817 227.497 19.8721 227.443 20.2476C227.362 20.804 227.679 21.1952 228.166 21.3455C229.021 21.6092 229.902 21.8674 230.791 21.9481C232.5 22.1034 234.23 22.0675 235.936 22.2418C236.839 22.334 237.767 22.5915 238.585 22.9694C239.934 23.5927 240.286 24.6842 240.151 26.3782C240.02 28.0095 239.221 29.1278 237.751 29.88C237.422 30.0481 237.109 30.2487 236.806 30.4562C236.291 30.8079 236.328 31.2185 236.891 31.4749C237.218 31.6241 237.556 31.7533 237.884 31.8999C239.408 32.5794 240.409 34.5175 240.027 36.041C239.836 36.8029 238.86 37.1352 238.223 36.6613C237.248 35.9367 236.195 35.3725 234.938 35.2497C233.91 35.1494 233.036 35.4548 232.37 36.2146C232.239 36.3642 232.123 36.6593 232.193 36.8011C232.274 36.9665 232.556 37.1057 232.77 37.1346C233.179 37.19 233.601 37.1727 234.018 37.1621C236.659 37.0951 238.358 38.2502 239.255 40.6344C240.311 43.4411 238.036 45.6462 235.693 46.1059C234.071 46.424 232.687 45.869 231.417 44.9721C230.224 44.1296 229.247 43.087 228.335 41.8935C229.208 41.9317 230.017 41.9259 230.815 42.012C231.894 42.1284 232.965 42.3089 234.037 42.4781C234.243 42.5106 234.444 42.6033 234.633 42.695C235.162 42.9515 235.168 43.2578 234.706 43.6233C234.44 43.7152 234.091 43.9413 234.313 44.1729C234.549 44.3974 234.726 44.4179 234.951 44.4787C235.139 44.5293 235.357 44.511 235.556 44.4825C236.133 44.3993 236.683 44.2335 236.924 43.6628C237.168 43.0862 236.867 42.6113 236.51 42.1741C235.557 41.0087 234.199 40.7092 232.759 40.6033C230.727 40.4538 228.693 40.3313 226.662 40.1607C226.204 40.1222 225.742 39.9729 225.311 39.8059C224.211 39.3797 223.809 38.422 224.227 37.3688C224.91 37.5539 225.581 37.7987 226.274 37.9103C227.79 38.1541 229.189 37.8532 230.375 36.8751C230.966 36.388 231.288 35.7781 231.158 35.0046C231.086 34.5821 230.826 34.4517 230.464 34.699C230.1 34.947 229.754 35.2236 229.426 35.5141C228.516 36.3189 227.458 36.5403 226.276 36.2621C225.017 35.9657 223.884 35.4589 223.228 34.3153C222.511 33.0658 222.968 31.3546 224.3 30.2054C224.574 29.9692 224.884 29.7706 225.104 29.6086C225.627 29.9875 226.077 30.3389 226.555 30.6515C226.854 30.8465 227.174 30.8404 227.378 30.4986C227.583 30.1535 227.533 29.8446 227.203 29.5729C226.897 29.3221 226.566 29.0788 226.335 28.7715C225.716 27.9486 225.862 26.8506 226.641 26.1638C226.726 26.0892 226.86 26.0256 226.972 26.0249C228.285 26.0166 229.598 25.9995 230.911 26.0336C231.405 26.0465 231.916 26.1263 232.383 26.2795C233.524 26.6546 234.165 27.6657 233.99 28.7044C233.83 29.6568 232.894 30.3706 231.716 30.433C231.503 30.4442 231.285 30.4112 231.077 30.4446C230.572 30.4605 230.669 30.9711 230.758 31.0743C231.579 32.026 232.872 32.2639 233.994 31.6908C236.642 30.3381 236.845 26.8955 234.373 25.2975C233.456 24.705 232.435 24.3768 231.343 24.3241C230.011 24.2599 228.672 24.314 227.341 24.2447C226.052 24.1776 224.899 23.7366 224.031 22.7801C223.359 22.0387 223.216 21.1862 223.572 20.2641C224.258 18.4923 226.043 17.5754 228.166 17.9651C229.6 18.2283 231.007 18.6363 232.446 18.8583C233.349 18.9975 234.303 19.0093 235.212 18.9051C236.677 18.7372 237.549 17.8524 237.864 16.4827C238.182 15.1018 237.814 13.9339 236.618 13.0563C235.632 12.3328 234.478 12.0147 233.268 11.857C231.95 11.6852 230.647 11.7418 229.37 12.1241C228.644 12.3864 228.567 12.8418 228.61 13.0685C228.638 13.2192 229.014 13.4054 229.239 13.4111C230.305 13.438 231.376 13.3576 232.439 13.4123C233.568 13.4705 234.705 13.5903 235.594 14.4012C236.241 14.9916 236.504 15.7405 236.252 16.3464C235.978 17.0071 235.265 17.4318 234.352 17.3829C233.694 17.3478 233.037 17.2377 232.39 17.1131C231.01 16.8474 229.642 16.5245 228.258 16.2785C227.667 16.1736 227.05 16.2026 226.428 16.1699C225.801 14.6123 225.432 13.6754 227.059 12.2277C228.564 10.8889 230.347 9.9543 232.486 10.0049C233.222 10.0224 233.948 10.3301 234.683 10.4852C235.3 10.6156 235.923 10.7244 236.547 10.8244C236.661 10.8426 237.186 10.9492 237.045 10.7115C236.82 10.3839 236.676 10.0606 236.432 9.83703C235.324 8.82201 233.955 8.39699 232.448 8.32379C232.245 8.31392 232.042 8.3199 231.839 8.31679C231.819 8.31656 231.8 8.30451 231.726 8.27871C232.273 7.45308 232.95 6.78909 233.951 6.55603C235.281 6.24618 236.551 6.4923 237.688 7.20393C238.835 7.92146 239.015 8.51356 239.029 9.97419ZM223.945 24.7235C223.638 24.5524 223.445 24.5734 223.192 24.7748C221.864 25.8313 221.474 27.2398 221.532 28.8077C221.552 29.3623 221.728 29.8737 222.229 30.2086C222.659 29.8594 223.037 29.495 223.474 29.2123C223.919 28.9242 224.421 28.7167 224.916 28.4643C224.71 27.3829 225.037 26.3971 225.648 25.4952C225.058 25.2337 224.477 25.0194 223.945 24.7235M243.923 10.0736C243.959 8.72945 244.098 8.12235 244.617 7.59817C246.325 5.87254 249.339 6.07451 250.748 8.005C250.807 8.08544 250.857 8.17193 250.932 8.28843C248.845 8.36326 246.935 8.72331 245.78 10.5818L245.834 10.7972C246.238 10.7972 246.649 10.8456 247.042 10.7837C247.439 10.7211 247.83 10.577 248.202 10.42C249.694 9.78923 251.181 9.85249 252.645 10.4689C253.81 10.9593 254.919 11.5535 255.788 12.4899C256.568 13.3304 256.839 14.2771 256.41 15.3703C256.303 15.644 256.226 15.9289 256.134 16.2112C253.755 16.0422 251.587 16.9974 249.309 17.2937C248.797 17.3602 248.26 17.3943 247.754 17.3213C246.63 17.1595 246.087 16.0395 246.63 15.0653C247.178 14.0791 248.108 13.6177 249.196 13.5382C250.546 13.4396 251.905 13.4467 253.26 13.4223C253.585 13.4164 253.921 13.4546 254.01 13.0528C254.097 12.6608 253.934 12.3574 253.538 12.2329C251.069 11.4548 248.664 11.5675 246.412 12.8829C245.034 13.6878 244.554 15.0262 244.942 16.5631C245.313 18.0339 246.296 18.8263 247.941 18.981C249.687 19.1451 251.341 18.6876 252.999 18.266C254.087 17.9892 255.172 17.7503 256.304 17.9908C258.022 18.3559 259.34 20.0976 259.043 21.6331C258.871 22.5211 258.275 23.1127 257.516 23.5567C256.596 24.0953 255.588 24.2891 254.515 24.2703C252.981 24.2434 251.438 24.1384 249.934 24.5677C248.991 24.8368 248.157 25.2976 247.488 25.9988C246.079 27.4755 246.436 30.0047 248.228 31.3811C249.396 32.2785 250.744 32.2098 251.781 31.1724C251.908 31.0454 251.963 30.7975 251.947 30.6143C251.941 30.5436 251.649 30.4682 251.479 30.4449C251.129 30.3968 250.765 30.4216 250.423 30.3465C249.414 30.1252 248.799 29.4497 248.687 28.4981C248.593 27.6948 249.153 26.8053 250.019 26.3828C250.859 25.9732 251.762 26.0209 252.661 26.0277C253.591 26.0347 254.521 26.0163 255.45 26.0332C255.626 26.0364 255.844 26.1075 255.967 26.2236C256.813 27.0225 256.78 28.3087 255.903 29.1474C255.733 29.3106 255.529 29.4405 255.343 29.5887C255.022 29.8441 254.996 30.1653 255.184 30.4926C255.376 30.8281 255.69 30.8524 255.988 30.6522C256.456 30.3382 256.899 29.9892 257.39 29.6279C258.556 30.1147 259.602 31.7254 259.57 33.0815C259.54 34.4117 258.626 35.4669 256.99 36.0596C255.489 36.6032 254.122 36.4873 252.949 35.3128C252.71 35.0738 252.427 34.8707 252.142 34.6842C251.824 34.476 251.588 34.5548 251.503 34.9436C251.31 35.8286 251.722 36.4847 252.395 36.9888C254.055 38.2327 255.867 38.2179 257.739 37.5184C257.904 37.4569 258.064 37.3836 258.224 37.3166C258.695 38.159 258.372 39.3398 257.429 39.6777C256.473 40.0204 255.443 40.2281 254.427 40.3354C252.611 40.5274 250.778 40.5674 248.959 40.7341C247.956 40.826 247.067 41.2476 246.392 42.011C245.952 42.5092 245.553 43.0439 245.881 43.7477C246.13 44.2812 246.987 44.6087 247.777 44.4768C247.998 44.4399 248.197 44.2768 248.405 44.1715C248.277 43.9859 248.183 43.7589 248.012 43.6226C247.552 43.2534 247.544 42.868 248.114 42.6939C248.985 42.428 249.886 42.2173 250.79 42.1045C251.913 41.9644 253.052 41.948 254.342 41.8684C253.683 42.5996 253.145 43.2584 252.541 43.8545C251.441 44.9406 250.219 45.8459 248.622 46.1416C245.824 46.6595 242.979 44.1736 243.334 41.5088C243.684 38.8871 245.847 37.0822 248.544 37.1548C248.994 37.1669 249.448 37.1891 249.891 37.135C250.107 37.1087 250.383 36.9598 250.478 36.7864C250.548 36.6576 250.426 36.3541 250.296 36.2072C249.432 35.2299 248.298 34.9845 247.109 35.39C246.209 35.6973 245.367 36.2017 244.549 36.6974C243.952 37.0596 243.025 36.8015 242.828 36.1231C242.413 34.6906 243.307 32.7244 244.716 31.9996C245.085 31.8098 245.477 31.6627 245.855 31.4889C246.414 31.2315 246.459 30.7957 245.948 30.4475C245.545 30.1734 245.138 29.8989 244.704 29.6781C242.503 28.5582 242.434 25.9079 242.889 24.339C243.124 23.5308 243.819 23.1006 244.556 22.7749C245.993 22.1394 247.542 22.172 249.075 22.0777C250.593 21.9844 252.109 21.8359 253.618 21.65C254.01 21.6017 254.399 21.3625 254.735 21.1348C254.925 21.0061 255.081 20.7308 255.108 20.505C255.132 20.3076 255.009 19.9997 254.849 19.9047C254.725 19.8311 254.444 20.014 254.231 20.0775C253.731 20.2263 253.238 20.4673 252.73 20.5009C251.135 20.6064 249.535 20.6199 247.937 20.6938C245.479 20.8075 244.076 19.731 243.609 17.2247C243.461 16.4261 243.481 15.5833 243.535 14.7677C243.582 14.0474 243.979 13.4625 244.639 13.0782C244.836 12.9635 245.042 12.8475 245.201 12.6913C245.345 12.5511 245.677 12.0795 245.048 11.7998C245.048 11.7998 243.887 11.4177 243.923 10.0736ZM260.645 30.1484C262.025 29.1385 261.131 25.3872 259.285 24.5782L257.223 25.4957C257.862 26.3988 258.132 27.4083 257.968 28.3583L260.645 30.1484Z" fill="#3D8A98"/>
<path d="M1.10526 65C212.72 61.0632 298.897 46.0614 286.142 27.4211" stroke="#3D8A98" stroke-width="2"/>
<line x1="1" y1="1" x2="285.263" y2="1" stroke="#3D8A98" stroke-width="2" stroke-linecap="square" stroke-dasharray="10 10"/>
</svg>
