<svg width="289" height="70" viewBox="0 0 289 70" fill="none" xmlns="http://www.w3.org/2000/svg">
<path d="M3.02344 25.7383L6.32812 25.1055C6.42188 24.8711 6.49219 24.6016 6.53906 24.2969C6.58594 23.9922 6.63281 23.6992 6.67969 23.418C6.72656 23.0898 6.75 22.7617 6.75 22.4336C6.75 22.1758 6.77344 21.8711 6.82031 21.5195C6.86719 21.2383 6.91406 20.8984 6.96094 20.5C7.00781 20.0781 7.07812 19.6328 7.17188 19.1641L10.1953 19.3398C10.0781 19.8086 9.98438 20.2305 9.91406 20.6055C9.84375 20.957 9.78516 21.2617 9.73828 21.5195C9.66797 21.8008 9.62109 22.0469 9.59766 22.2578C9.57422 22.5156 9.53906 22.7852 9.49219 23.0664C9.44531 23.3242 9.38672 23.6289 9.31641 23.9805C9.26953 24.332 9.22266 24.7422 9.17578 25.2109C9.78516 25.1172 10.3242 25.0469 10.793 25C11.2617 24.9531 11.6602 24.9062 11.9883 24.8594C12.3633 24.8125 12.6914 24.7891 12.9727 24.7891C13.2539 24.7656 13.5586 24.7422 13.8867 24.7188C14.168 24.6953 14.4961 24.6836 14.8711 24.6836C15.2461 24.6602 15.6562 24.6367 16.1016 24.6133L17.1914 19.3398L21.0234 19.4102C20.8594 19.832 20.7188 20.2188 20.6016 20.5703C20.5078 20.8984 20.4258 21.1914 20.3555 21.4492C20.2617 21.7305 20.1914 22 20.1445 22.2578C20.0977 22.4922 20.0391 22.7383 19.9688 22.9961C19.9219 23.207 19.8633 23.4531 19.793 23.7344C19.7227 23.9922 19.6406 24.25 19.5469 24.5078H23.168L22.3945 28.1289C22.2305 28.082 22.043 28.0352 21.832 27.9883C21.6211 27.918 21.4219 27.8594 21.2344 27.8125C21 27.7656 20.7539 27.7305 20.4961 27.707C20.2852 27.6836 20.0742 27.6602 19.8633 27.6367C19.4648 27.5898 19.1602 27.5898 18.9492 27.6367C18.8555 28.0352 18.7617 28.3984 18.668 28.7266C18.5977 29.0547 18.5391 29.3477 18.4922 29.6055C18.4219 29.8867 18.3633 30.1445 18.3164 30.3789C18.2695 30.6133 18.2109 30.8711 18.1406 31.1523C18.0938 31.4102 18.0352 31.7031 17.9648 32.0312C17.8945 32.3359 17.8125 32.6875 17.7188 33.0859C17.9766 33.0859 18.2109 33.0859 18.4219 33.0859C18.6562 33.0859 18.8672 33.0742 19.0547 33.0508C19.2656 33.0273 19.4531 33.0039 19.6172 32.9805C19.7812 32.9805 19.9805 32.9688 20.2148 32.9453C20.4023 32.9219 20.625 32.9102 20.8828 32.9102C21.1641 32.8867 21.4688 32.8516 21.7969 32.8047L20.4961 35.9336C20.3086 35.957 20.1211 35.9688 19.9336 35.9688C19.7695 35.9453 19.6172 35.9219 19.4766 35.8984C19.3125 35.875 19.1602 35.8516 19.0195 35.8281C18.8555 35.8047 18.668 35.7695 18.457 35.7227C18.2695 35.6992 18.0469 35.6758 17.7891 35.6523C17.5547 35.6289 17.2734 35.6055 16.9453 35.582C16.8984 35.6523 16.8516 35.7812 16.8047 35.9688C16.7578 36.1328 16.7109 36.3086 16.6641 36.4961C16.6172 36.7305 16.5703 36.9648 16.5234 37.1992L16.3477 38.0781C16.3008 38.3359 16.2422 38.6289 16.1719 38.957C16.1016 39.2617 16.043 39.5781 15.9961 39.9062C15.3398 40.0234 14.8242 40.1172 14.4492 40.1875C14.0742 40.2344 13.793 40.2695 13.6055 40.293C13.3711 40.3398 13.2188 40.3516 13.1484 40.3281C13.1016 40.2812 13.1016 40.082 13.1484 39.7305C13.1953 39.4258 13.2656 38.957 13.3594 38.3242C13.4766 37.6914 13.6641 36.7773 13.9219 35.582C13.6406 35.6055 13.3242 35.6406 12.9727 35.6875C12.6211 35.7109 12.293 35.7461 11.9883 35.793C11.6133 35.8398 11.25 35.8867 10.8984 35.9336C10.5469 35.9805 10.1602 36.0391 9.73828 36.1094C9.38672 36.1562 8.98828 36.2148 8.54297 36.2852C8.12109 36.3555 7.69922 36.4375 7.27734 36.5312L6.15234 41.1016L3.375 41.3477C3.49219 40.8555 3.59766 40.4453 3.69141 40.1172C3.80859 39.7656 3.89062 39.4844 3.9375 39.2734C4.00781 39.0156 4.05469 38.8164 4.07812 38.6758C4.10156 38.5586 4.13672 38.3945 4.18359 38.1836C4.23047 37.9961 4.26562 37.7734 4.28906 37.5156C4.33594 37.2578 4.38281 36.9531 4.42969 36.6016C4.10156 36.7188 3.79688 36.8242 3.51562 36.918C3.23438 37.0117 3 37.082 2.8125 37.1289C2.57812 37.1992 2.36719 37.2578 2.17969 37.3047C1.99219 37.3516 1.79297 37.4102 1.58203 37.4805C1.39453 37.5273 1.19531 37.5977 0.984375 37.6914C0.773438 37.7852 0.5625 37.8906 0.351562 38.0078L0.808594 34.5273L4.67578 34.1758C4.76953 33.7539 4.85156 33.3789 4.92188 33.0508C5.01562 32.6992 5.08594 32.3945 5.13281 32.1367C5.20312 31.8555 5.25 31.5859 5.27344 31.3281C5.32031 31.0469 5.37891 30.7422 5.44922 30.4141C5.49609 30.1328 5.54297 29.8164 5.58984 29.4648C5.66016 29.0898 5.73047 28.6797 5.80078 28.2344C5.54297 28.2578 5.30859 28.2812 5.09766 28.3047C4.91016 28.3281 4.72266 28.3516 4.53516 28.375C4.32422 28.4219 4.13672 28.457 3.97266 28.4805C3.85547 28.5039 3.70312 28.5508 3.51562 28.6211C3.35156 28.668 3.12891 28.7383 2.84766 28.832C2.58984 28.9258 2.27344 29.043 1.89844 29.1836L3.02344 25.7383ZM7.875 34.1055C8.46094 34.0586 8.96484 34.0117 9.38672 33.9648C9.83203 33.8945 10.1953 33.8359 10.4766 33.7891L11.3203 33.6836L12.1641 33.5781C12.4453 33.5312 12.7852 33.4961 13.1836 33.4727C13.6055 33.4258 14.0859 33.3789 14.625 33.332L15.75 27.3555C15.1875 27.4023 14.6836 27.4375 14.2383 27.4609C13.793 27.4609 13.4062 27.4727 13.0781 27.4961C12.7031 27.5195 12.375 27.5312 12.0938 27.5312C11.8125 27.5547 11.5078 27.5781 11.1797 27.6016C10.8984 27.625 10.5703 27.6484 10.1953 27.6719C9.82031 27.6719 9.42188 27.6836 9 27.707L7.875 34.1055ZM26.332 17.6523C26.7773 17.7695 27.1992 17.8633 27.5977 17.9336C27.9961 17.9805 28.3477 18.0273 28.6523 18.0742C29.0039 18.1211 29.332 18.1562 29.6367 18.1797C29.9648 18.2031 30.3516 18.2266 30.7969 18.25C31.1953 18.2734 31.6758 18.2852 32.2383 18.2852C32.8008 18.2852 33.4688 18.2852 34.2422 18.2852C33.5625 19.9023 33.0117 21.2734 32.5898 22.3984C32.168 23.5 31.8398 24.4141 31.6055 25.1406C31.3477 25.9844 31.1602 26.6758 31.043 27.2148C30.9492 27.7539 30.832 28.4102 30.6914 29.1836C30.5742 29.8633 30.4102 30.6953 30.1992 31.6797C29.9883 32.6641 29.7539 33.8359 29.4961 35.1953L26.4023 35.0547C26.5898 33.8125 26.7188 32.7578 26.7891 31.8906C26.8594 31 26.918 30.2617 26.9648 29.6758C27.0117 28.9961 27.0352 28.4336 27.0352 27.9883C27.0352 27.5195 27 26.8164 26.9297 25.8789C26.8828 25.1055 26.8125 24.0625 26.7188 22.75C26.625 21.4141 26.4961 19.7148 26.332 17.6523ZM30.1992 37.8672C30.3633 38.125 30.457 38.418 30.4805 38.7461C30.5273 39.0508 30.5039 39.3672 30.4102 39.6953C30.3398 40 30.1875 40.293 29.9531 40.5742C29.7422 40.8555 29.4492 41.0781 29.0742 41.2422C28.3242 41.5938 27.6562 41.6875 27.0703 41.5234C26.4844 41.3359 26.0508 41.0312 25.7695 40.6094C25.6055 40.375 25.5117 40.1172 25.4883 39.8359C25.4883 39.5312 25.5469 39.2383 25.6641 38.957C25.7812 38.6523 25.9688 38.3711 26.2266 38.1133C26.4844 37.8555 26.8125 37.6445 27.2109 37.4805C27.9844 37.1523 28.6172 37.0352 29.1094 37.1289C29.625 37.2227 29.9883 37.4688 30.1992 37.8672ZM45.0352 17.9336C45.8555 18.0508 46.5703 18.1445 47.1797 18.2148C47.7891 18.2852 48.293 18.3438 48.6914 18.3906C49.1602 18.4375 49.5586 18.4727 49.8867 18.4961C50.2617 18.543 50.7188 18.5195 51.2578 18.4258C51.8203 18.332 52.418 18.2383 53.0508 18.1445C53.6836 18.0273 54.3398 17.9336 55.0195 17.8633C55.6992 17.793 56.3555 17.793 56.9883 17.8633C57.4102 17.9102 57.9492 18.0039 58.6055 18.1445C59.2617 18.2852 59.9531 18.5078 60.6797 18.8125C61.4297 19.1172 62.1797 19.5156 62.9297 20.0078C63.6797 20.5 64.3594 21.1211 64.9688 21.8711C65.5781 22.6211 66.082 23.5117 66.4805 24.543C66.8789 25.5742 67.1016 26.7812 67.1484 28.1641C67.2188 30.2266 67.0312 32.1016 66.5859 33.7891C66.1406 35.4766 65.4492 36.918 64.5117 38.1133C63.5977 39.3086 62.4375 40.2461 61.0312 40.9258C59.625 41.6055 57.9844 41.9805 56.1094 42.0508C54.6797 42.168 53.2734 42.2734 51.8906 42.3672C51.3047 42.4141 50.6836 42.4492 50.0273 42.4727C49.3945 42.4961 48.7617 42.5195 48.1289 42.543C47.4961 42.543 46.8867 42.5312 46.3008 42.5078C45.7148 42.4844 45.1758 42.4492 44.6836 42.4023C45.2227 42.1445 45.6562 41.8867 45.9844 41.6289C46.3359 41.3711 46.6055 41.1484 46.793 40.9609C47.0039 40.7266 47.1562 40.5156 47.25 40.3281C47.2969 40.0703 47.3672 39.5664 47.4609 38.8164C47.5312 38.1836 47.625 37.2812 47.7422 36.1094C47.8594 34.9375 48 33.3438 48.1641 31.3281L48.375 28.832C48.4922 27.2852 48.5391 26.0195 48.5156 25.0352C48.5156 24.0508 48.4922 23.2773 48.4453 22.7148C48.375 22.0586 48.2812 21.5781 48.1641 21.2734C48.0703 21.0156 47.8945 20.7109 47.6367 20.3594C47.4023 20.0781 47.0742 19.7383 46.6523 19.3398C46.2539 18.918 45.7148 18.4492 45.0352 17.9336ZM52.4531 30.8711C52.5 32.957 52.6055 34.5625 52.7695 35.6875C52.957 36.7891 53.1562 37.6094 53.3672 38.1484C53.625 38.7578 53.9062 39.1211 54.2109 39.2383C54.6562 39.2383 55.1602 39.0508 55.7227 38.6758C56.2852 38.2773 56.8359 37.6797 57.375 36.8828C57.9375 36.0859 58.4414 35.0898 58.8867 33.8945C59.3555 32.6992 59.6953 31.3047 59.9062 29.7109C60.1172 28.1172 60.0586 26.7109 59.7305 25.4922C59.4023 24.2734 58.9688 23.2539 58.4297 22.4336C57.8906 21.5898 57.3398 20.957 56.7773 20.5352C56.2148 20.0898 55.793 19.8672 55.5117 19.8672C55.1836 19.8672 54.8906 19.9609 54.6328 20.1484C54.375 20.3125 54.0117 20.6992 53.543 21.3086C53.3086 21.6367 53.0977 22.1055 52.9102 22.7148C52.7461 23.2539 52.6055 23.9688 52.4883 24.8594C52.3711 25.75 52.3359 26.8984 52.3828 28.3047L52.4531 30.8711ZM71.4023 28.7617C71.5195 28.6211 71.5898 28.3633 71.6133 27.9883C71.6602 27.5898 71.7539 27.1445 71.8945 26.6523C72.0586 26.1602 72.3281 25.6445 72.7031 25.1055C73.0781 24.5664 73.6875 24.0625 74.5312 23.5938C75.3516 23.125 76.1484 22.8438 76.9219 22.75C77.6953 22.6562 78.4336 22.6914 79.1367 22.8555C79.8398 23.0195 80.4961 23.2773 81.1055 23.6289C81.7383 23.9805 82.3125 24.3672 82.8281 24.7891C83.1797 25.0703 83.4609 25.4805 83.6719 26.0195C83.8828 26.5352 84.0469 27.1211 84.1641 27.7773C84.2812 28.4336 84.3633 29.125 84.4102 29.8516C84.4805 30.5547 84.5273 31.2461 84.5508 31.9258C84.5742 32.582 84.5859 33.1914 84.5859 33.7539C84.6094 34.293 84.6562 34.7383 84.7266 35.0898C84.8203 35.6055 84.9844 36.0508 85.2188 36.4258C85.4531 36.7773 85.7109 37.082 85.9922 37.3398C86.2734 37.5742 86.5547 37.7617 86.8359 37.9023C87.1172 38.043 87.3633 38.1484 87.5742 38.2188C87.7148 38.2891 87.8438 38.3359 87.9609 38.3594C88.1953 38.4531 88.3594 38.4531 88.4531 38.3594C88.3125 38.6875 88.1836 38.9688 88.0664 39.2031C87.9492 39.4375 87.8555 39.6367 87.7852 39.8008C87.6914 39.9883 87.6094 40.1406 87.5391 40.2578C87.4688 40.3984 87.3867 40.5273 87.293 40.6445C87.2227 40.7617 87.1289 40.8906 87.0117 41.0312C86.8945 41.1719 86.7773 41.3242 86.6602 41.4883C86.3555 41.3711 86.0625 41.2305 85.7812 41.0664C85.5234 40.9023 85.2891 40.75 85.0781 40.6094C84.8203 40.4453 84.5859 40.2812 84.375 40.1172C84.1641 39.9531 83.9648 39.7656 83.7773 39.5547C83.6133 39.3672 83.4375 39.168 83.25 38.957C83.0859 38.7461 82.9453 38.5117 82.8281 38.2539C82.6875 38.5586 82.3477 38.9922 81.8086 39.5547C81.293 40.1172 80.6133 40.6328 79.7695 41.1016C78.9258 41.5469 77.9414 41.8633 76.8164 42.0508C75.7148 42.2383 74.4961 42.1094 73.1602 41.6641C72.5742 41.4766 72.0234 41.207 71.5078 40.8555C70.9922 40.4805 70.5469 40.0352 70.1719 39.5195C69.8203 39.0039 69.5625 38.418 69.3984 37.7617C69.2578 37.082 69.2695 36.332 69.4336 35.5117C69.5977 34.6914 69.8906 34 70.3125 33.4375C70.7344 32.875 71.2383 32.418 71.8242 32.0664C72.4102 31.7148 73.0664 31.4453 73.793 31.2578C74.5195 31.0703 75.2695 30.9414 76.043 30.8711C76.6523 30.8477 77.2617 30.8828 77.8711 30.9766C78.3867 31.0703 78.9258 31.2461 79.4883 31.5039C80.0508 31.7383 80.5312 32.1016 80.9297 32.5938C80.9062 31.3516 80.8594 30.3672 80.7891 29.6406C80.7422 28.8906 80.6953 28.3164 80.6484 27.918C80.5547 27.4492 80.4727 27.1211 80.4023 26.9336C80.2852 26.7695 80.1562 26.582 80.0156 26.3711C79.8984 26.1602 79.7461 25.9727 79.5586 25.8086C79.3711 25.6211 79.1367 25.4688 78.8555 25.3516C78.5742 25.2344 78.2461 25.1875 77.8711 25.2109C77.4727 25.2344 77.1562 25.3398 76.9219 25.5273C76.6875 25.7148 76.5 25.9375 76.3594 26.1953C76.2422 26.4297 76.1719 26.6875 76.1484 26.9688C76.125 27.25 76.1367 27.4961 76.1836 27.707C76.2305 27.8477 76.3008 28 76.3945 28.1641C76.4883 28.3047 76.6172 28.457 76.7812 28.6211C76.9453 28.7852 77.168 28.9258 77.4492 29.043C76.9102 29.1133 76.4297 29.1719 76.0078 29.2188C75.5859 29.2422 75.2227 29.2773 74.918 29.3242C74.5664 29.3711 74.2617 29.4062 74.0039 29.4297C73.7461 29.4531 73.4414 29.5 73.0898 29.5703C72.7852 29.6172 72.4102 29.6758 71.9648 29.7461C71.5195 29.8164 71.0039 29.9102 70.418 30.0273C70.5586 29.8633 70.6875 29.7109 70.8047 29.5703C70.9219 29.4062 71.0273 29.2656 71.1211 29.1484C71.2148 29.0078 71.3086 28.8789 71.4023 28.7617ZM76.6758 32.9453C76.2539 32.9688 75.832 33.0742 75.4102 33.2617C74.9883 33.4258 74.6133 33.6719 74.2852 34C73.957 34.3047 73.6758 34.668 73.4414 35.0898C73.2305 35.4883 73.125 35.9336 73.125 36.4258C73.125 36.918 73.2422 37.3516 73.4766 37.7266C73.7344 38.0781 74.0625 38.3711 74.4609 38.6055C74.8828 38.8398 75.3281 38.9805 75.7969 39.0273C76.2891 39.0742 76.7695 39.0273 77.2383 38.8867C77.6836 38.7227 78.1055 38.4648 78.5039 38.1133C78.9023 37.7383 79.2422 37.3398 79.5234 36.918C79.8047 36.4727 80.0039 36.0391 80.1211 35.6172C80.2383 35.1719 80.25 34.8086 80.1562 34.5273C79.9688 33.918 79.5469 33.4961 78.8906 33.2617C78.2344 33.0039 77.4961 32.8984 76.6758 32.9453ZM87.6797 20.8516C88.3828 20.9219 88.9688 20.9805 89.4375 21.0273C89.9297 21.0742 90.3281 21.1094 90.6328 21.1328C90.9844 21.1562 91.2656 21.168 91.4766 21.168C91.6875 21.1914 91.9688 21.1914 92.3203 21.168C92.625 21.1445 93.0234 21.1211 93.5156 21.0977C94.0078 21.0508 94.6289 20.9805 95.3789 20.8867C95.2148 21.1211 95.0859 21.332 94.9922 21.5195C94.8984 21.6836 94.8164 21.8359 94.7461 21.9766L94.5352 22.3984C94.4883 22.5391 94.4414 22.6797 94.3945 22.8203C94.3477 22.9375 94.3008 23.0781 94.2539 23.2422C94.2305 23.4062 94.207 23.582 94.1836 23.7695H99.5977L99.1055 26.6172L94.1484 26.3359C94.0312 27.5312 93.9492 28.457 93.9023 29.1133C93.8555 29.7695 93.8086 30.25 93.7617 30.5547L93.6914 31.1875C93.6211 32.0781 93.5508 33.0508 93.4805 34.1055C93.4102 35.1367 93.3867 36.0977 93.4102 36.9883C93.4336 37.8789 93.5156 38.6289 93.6562 39.2383C93.7969 39.8242 94.043 40.1172 94.3945 40.1172C94.7461 40.1172 95.0742 40.0234 95.3789 39.8359C95.6836 39.6484 95.9414 39.4258 96.1523 39.168C96.3867 38.9102 96.5625 38.6523 96.6797 38.3945C96.7969 38.1133 96.8555 37.9023 96.8555 37.7617C96.8555 37.6211 96.8203 37.457 96.75 37.2695C96.6328 36.918 96.4219 36.4727 96.1172 35.9336C96.7969 36.0977 97.3945 36.2617 97.9102 36.4258C98.168 36.5195 98.4023 36.6133 98.6133 36.707C98.8477 36.8008 99.1172 36.9062 99.4219 37.0234C99.6797 37.1406 100.008 37.2812 100.406 37.4453C100.805 37.6094 101.273 37.8086 101.812 38.043C101.297 38.1367 100.922 38.2891 100.688 38.5C100.547 38.5938 100.441 38.6992 100.371 38.8164C100.207 39.0742 100.02 39.4258 99.8086 39.8711C99.5977 40.293 99.2812 40.7148 98.8594 41.1367C98.4375 41.5586 97.8633 41.9336 97.1367 42.2617C96.4336 42.5898 95.4844 42.7773 94.2891 42.8242C93.0469 42.8711 92.0977 42.6602 91.4414 42.1914C90.8086 41.7227 90.3398 41.1836 90.0352 40.5742C89.7539 39.9414 89.5898 39.3203 89.543 38.7109C89.4961 38.1016 89.4609 37.6914 89.4375 37.4805C89.4141 37.2695 89.4141 36.7422 89.4375 35.8984C89.4609 35.0547 89.4961 34.1289 89.543 33.1211C89.5898 32.0898 89.6367 31.1055 89.6836 30.168C89.7305 29.207 89.7539 28.5039 89.7539 28.0586C89.7539 27.8242 89.7656 27.5781 89.7891 27.3203C89.7891 27.1094 89.7891 26.8867 89.7891 26.6523C89.8125 26.3945 89.8242 26.1484 89.8242 25.9141L84.7266 25.8789L84.5156 23.875L89.6484 24.0156C89.6016 23.7578 89.543 23.5234 89.4727 23.3125C89.4258 23.0781 89.3789 22.8906 89.332 22.75C89.2617 22.5859 89.1914 22.4453 89.1211 22.3281C89.0273 22.2109 88.9219 22.082 88.8047 21.9414C88.6875 21.8242 88.5352 21.6719 88.3477 21.4844C88.1602 21.2969 87.9375 21.0859 87.6797 20.8516ZM103.008 28.7617C103.125 28.6211 103.195 28.3633 103.219 27.9883C103.266 27.5898 103.359 27.1445 103.5 26.6523C103.664 26.1602 103.934 25.6445 104.309 25.1055C104.684 24.5664 105.293 24.0625 106.137 23.5938C106.957 23.125 107.754 22.8438 108.527 22.75C109.301 22.6562 110.039 22.6914 110.742 22.8555C111.445 23.0195 112.102 23.2773 112.711 23.6289C113.344 23.9805 113.918 24.3672 114.434 24.7891C114.785 25.0703 115.066 25.4805 115.277 26.0195C115.488 26.5352 115.652 27.1211 115.77 27.7773C115.887 28.4336 115.969 29.125 116.016 29.8516C116.086 30.5547 116.133 31.2461 116.156 31.9258C116.18 32.582 116.191 33.1914 116.191 33.7539C116.215 34.293 116.262 34.7383 116.332 35.0898C116.426 35.6055 116.59 36.0508 116.824 36.4258C117.059 36.7773 117.316 37.082 117.598 37.3398C117.879 37.5742 118.16 37.7617 118.441 37.9023C118.723 38.043 118.969 38.1484 119.18 38.2188C119.32 38.2891 119.449 38.3359 119.566 38.3594C119.801 38.4531 119.965 38.4531 120.059 38.3594C119.918 38.6875 119.789 38.9688 119.672 39.2031C119.555 39.4375 119.461 39.6367 119.391 39.8008C119.297 39.9883 119.215 40.1406 119.145 40.2578C119.074 40.3984 118.992 40.5273 118.898 40.6445C118.828 40.7617 118.734 40.8906 118.617 41.0312C118.5 41.1719 118.383 41.3242 118.266 41.4883C117.961 41.3711 117.668 41.2305 117.387 41.0664C117.129 40.9023 116.895 40.75 116.684 40.6094C116.426 40.4453 116.191 40.2812 115.98 40.1172C115.77 39.9531 115.57 39.7656 115.383 39.5547C115.219 39.3672 115.043 39.168 114.855 38.957C114.691 38.7461 114.551 38.5117 114.434 38.2539C114.293 38.5586 113.953 38.9922 113.414 39.5547C112.898 40.1172 112.219 40.6328 111.375 41.1016C110.531 41.5469 109.547 41.8633 108.422 42.0508C107.32 42.2383 106.102 42.1094 104.766 41.6641C104.18 41.4766 103.629 41.207 103.113 40.8555C102.598 40.4805 102.152 40.0352 101.777 39.5195C101.426 39.0039 101.168 38.418 101.004 37.7617C100.863 37.082 100.875 36.332 101.039 35.5117C101.203 34.6914 101.496 34 101.918 33.4375C102.34 32.875 102.844 32.418 103.43 32.0664C104.016 31.7148 104.672 31.4453 105.398 31.2578C106.125 31.0703 106.875 30.9414 107.648 30.8711C108.258 30.8477 108.867 30.8828 109.477 30.9766C109.992 31.0703 110.531 31.2461 111.094 31.5039C111.656 31.7383 112.137 32.1016 112.535 32.5938C112.512 31.3516 112.465 30.3672 112.395 29.6406C112.348 28.8906 112.301 28.3164 112.254 27.918C112.16 27.4492 112.078 27.1211 112.008 26.9336C111.891 26.7695 111.762 26.582 111.621 26.3711C111.504 26.1602 111.352 25.9727 111.164 25.8086C110.977 25.6211 110.742 25.4688 110.461 25.3516C110.18 25.2344 109.852 25.1875 109.477 25.2109C109.078 25.2344 108.762 25.3398 108.527 25.5273C108.293 25.7148 108.105 25.9375 107.965 26.1953C107.848 26.4297 107.777 26.6875 107.754 26.9688C107.73 27.25 107.742 27.4961 107.789 27.707C107.836 27.8477 107.906 28 108 28.1641C108.094 28.3047 108.223 28.457 108.387 28.6211C108.551 28.7852 108.773 28.9258 109.055 29.043C108.516 29.1133 108.035 29.1719 107.613 29.2188C107.191 29.2422 106.828 29.2773 106.523 29.3242C106.172 29.3711 105.867 29.4062 105.609 29.4297C105.352 29.4531 105.047 29.5 104.695 29.5703C104.391 29.6172 104.016 29.6758 103.57 29.7461C103.125 29.8164 102.609 29.9102 102.023 30.0273C102.164 29.8633 102.293 29.7109 102.41 29.5703C102.527 29.4062 102.633 29.2656 102.727 29.1484C102.82 29.0078 102.914 28.8789 103.008 28.7617ZM108.281 32.9453C107.859 32.9688 107.438 33.0742 107.016 33.2617C106.594 33.4258 106.219 33.6719 105.891 34C105.562 34.3047 105.281 34.668 105.047 35.0898C104.836 35.4883 104.73 35.9336 104.73 36.4258C104.73 36.918 104.848 37.3516 105.082 37.7266C105.34 38.0781 105.668 38.3711 106.066 38.6055C106.488 38.8398 106.934 38.9805 107.402 39.0273C107.895 39.0742 108.375 39.0273 108.844 38.8867C109.289 38.7227 109.711 38.4648 110.109 38.1133C110.508 37.7383 110.848 37.3398 111.129 36.918C111.41 36.4727 111.609 36.0391 111.727 35.6172C111.844 35.1719 111.855 34.8086 111.762 34.5273C111.574 33.918 111.152 33.4961 110.496 33.2617C109.84 33.0039 109.102 32.8984 108.281 32.9453ZM117.914 17.8281C118.805 18.0391 119.602 18.2031 120.305 18.3203C121.031 18.4141 121.641 18.4844 122.133 18.5312C122.719 18.6016 123.234 18.625 123.68 18.6016C124.242 18.5781 124.945 18.4961 125.789 18.3555C126.633 18.2148 127.523 18.0742 128.461 17.9336C129.398 17.793 130.324 17.6758 131.238 17.582C132.152 17.4883 132.949 17.4766 133.629 17.5469C134.309 17.6172 135.023 17.7812 135.773 18.0391C136.523 18.2734 137.227 18.6016 137.883 19.0234C138.539 19.4219 139.102 19.9141 139.57 20.5C140.062 21.0859 140.367 21.7656 140.484 22.5391C140.602 23.2891 140.531 24.0977 140.273 24.9648C140.016 25.8086 139.605 26.6406 139.043 27.4609C138.48 28.2578 137.777 28.9961 136.934 29.6758C136.09 30.3555 135.152 30.9062 134.121 31.3281C133.301 31.6328 132.41 31.8672 131.449 32.0312C130.629 32.1719 129.668 32.2656 128.566 32.3125C127.488 32.3359 126.34 32.2188 125.121 31.9609C124.957 32.6406 124.863 33.2734 124.84 33.8594C124.84 34.4219 124.863 34.9258 124.91 35.3711C124.98 35.8867 125.074 36.3555 125.191 36.7773C125.332 37.1992 125.508 37.6914 125.719 38.2539C125.906 38.7227 126.117 39.2969 126.352 39.9766C126.609 40.6328 126.914 41.3711 127.266 42.1914C126.844 42.1914 126.434 42.2031 126.035 42.2266C125.637 42.2266 125.273 42.2383 124.945 42.2617C124.57 42.2852 124.219 42.3086 123.891 42.332C123.516 42.3555 123.094 42.4023 122.625 42.4727C122.227 42.5195 121.723 42.5898 121.113 42.6836C120.527 42.7773 119.859 42.8945 119.109 43.0352C119.602 42.332 119.988 41.6875 120.27 41.1016C120.574 40.4922 120.797 39.9648 120.938 39.5195C121.102 39.0039 121.207 38.5352 121.254 38.1133C121.277 37.7617 121.277 37.1406 121.254 36.25C121.254 35.3594 121.242 34.3281 121.219 33.1562C121.195 31.9844 121.16 30.7539 121.113 29.4648C121.066 28.1758 121.008 26.9688 120.938 25.8438C120.867 24.6953 120.785 23.7109 120.691 22.8906C120.621 22.0703 120.551 21.5312 120.48 21.2734C120.387 20.9688 120.223 20.6406 119.988 20.2891C119.801 19.9844 119.531 19.6328 119.18 19.2344C118.852 18.8125 118.43 18.3438 117.914 17.8281ZM125.191 24.7539C125.168 24.9883 125.156 25.2344 125.156 25.4922C125.156 25.9844 125.191 26.6172 125.262 27.3906C125.426 27.7891 125.625 28.1172 125.859 28.375C126.117 28.6328 126.387 28.832 126.668 28.9727C126.973 29.1133 127.277 29.207 127.582 29.2539C127.887 29.3008 128.191 29.3242 128.496 29.3242C129.199 29.3008 129.938 29.1367 130.711 28.832C131.742 28.3867 132.469 27.7539 132.891 26.9336C133.312 26.1133 133.535 25.2695 133.559 24.4023C133.582 23.5352 133.43 22.7383 133.102 22.0117C132.797 21.2852 132.422 20.793 131.977 20.5352C131.602 20.3711 131.121 20.3008 130.535 20.3242C130.02 20.3477 129.375 20.4766 128.602 20.7109C127.828 20.9453 126.879 21.3672 125.754 21.9766C125.637 22.3984 125.543 22.7734 125.473 23.1016C125.402 23.4297 125.344 23.7227 125.297 23.9805C125.25 24.2617 125.215 24.5195 125.191 24.7539ZM147.586 27.25C148.195 27.25 148.828 27.3672 149.484 27.6016C150.141 27.8125 150.773 28.0938 151.383 28.4453C151.992 28.7734 152.543 29.1367 153.035 29.5352C153.551 29.9102 153.973 30.2734 154.301 30.625C154.887 31.2578 155.285 32.1133 155.496 33.1914C155.73 34.2461 155.777 35.3359 155.637 36.4609C155.496 37.5625 155.168 38.6055 154.652 39.5898C154.137 40.5742 153.422 41.3008 152.508 41.7695C151.852 42.0977 151.207 42.3555 150.574 42.543C149.941 42.7305 149.332 42.8711 148.746 42.9648C148.16 43.0586 147.609 43.1055 147.094 43.1055C146.578 43.1055 146.133 43.0938 145.758 43.0703C145.055 43.0234 144.316 42.7773 143.543 42.332C142.793 41.8867 142.078 41.3359 141.398 40.6797C140.742 40.0234 140.18 39.3086 139.711 38.5352C139.242 37.7383 138.961 36.9883 138.867 36.2852C138.727 35.3242 138.703 34.3164 138.797 33.2617C138.891 32.207 139.23 31.2344 139.816 30.3438C140.426 29.4531 141.34 28.7148 142.559 28.1289C143.801 27.543 145.477 27.25 147.586 27.25ZM146.426 40.8906C146.684 40.9375 147.035 40.8789 147.48 40.7148C147.926 40.5273 148.359 40.2344 148.781 39.8359C149.227 39.4375 149.613 38.9336 149.941 38.3242C150.293 37.6914 150.504 36.9297 150.574 36.0391C150.645 35.1719 150.645 34.375 150.574 33.6484C150.527 32.9219 150.422 32.2891 150.258 31.75C150.094 31.1875 149.906 30.7305 149.695 30.3789C149.484 30.0273 149.262 29.7812 149.027 29.6406C148.629 29.4297 148.148 29.2656 147.586 29.1484C147.023 29.0078 146.543 29.0312 146.145 29.2188C145.957 29.3125 145.723 29.5117 145.441 29.8164C145.16 30.1211 144.879 30.5078 144.598 30.9766C144.316 31.4219 144.059 31.9375 143.824 32.5234C143.613 33.1094 143.461 33.7188 143.367 34.3516C143.273 34.9844 143.25 35.6641 143.297 36.3906C143.367 37.1172 143.52 37.8086 143.754 38.4648C143.988 39.0977 144.316 39.6484 144.738 40.1172C145.184 40.5625 145.746 40.8203 146.426 40.8906ZM156.973 26.1602C157.418 26.1836 157.816 26.1953 158.168 26.1953C158.543 26.1719 158.859 26.1484 159.117 26.125C159.422 26.1016 159.691 26.0781 159.926 26.0547C160.277 26.0078 160.641 25.9492 161.016 25.8789C161.344 25.832 161.684 25.7734 162.035 25.7031C162.41 25.6094 162.773 25.5039 163.125 25.3867C162.984 25.7383 162.867 26.043 162.773 26.3008C162.68 26.5586 162.609 26.7812 162.562 26.9688C162.492 27.1797 162.457 27.3555 162.457 27.4961C162.434 27.6602 162.422 27.8594 162.422 28.0938C162.398 28.4922 162.398 29.1367 162.422 30.0273C163.641 28.9727 164.66 28.1523 165.48 27.5664C166.324 26.9805 166.992 26.5234 167.484 26.1953C168.07 25.8203 168.527 25.5742 168.855 25.457C169.723 25.3164 170.484 25.5156 171.141 26.0547C171.422 26.2891 171.691 26.6055 171.949 27.0039C172.207 27.3789 172.43 27.8828 172.617 28.5156C172.805 29.1484 172.945 29.9102 173.039 30.8008C173.133 31.668 173.145 32.7109 173.074 33.9297C172.582 33.9766 172.137 34.0234 171.738 34.0703C171.363 34.1172 171.047 34.1523 170.789 34.1758C170.484 34.2227 170.203 34.2461 169.945 34.2461L168.996 34.3516C168.668 34.3984 168.258 34.4453 167.766 34.4922C167.297 34.5156 166.723 34.5625 166.043 34.6328C167.027 33.8359 167.66 33.1445 167.941 32.5586C168.246 31.9492 168.375 31.4453 168.328 31.0469C168.281 30.6016 168.07 30.2148 167.695 29.8867C167.25 29.6289 166.77 29.5352 166.254 29.6055C165.809 29.6523 165.293 29.8516 164.707 30.2031C164.121 30.5547 163.5 31.2109 162.844 32.1719C162.891 33.6719 162.938 34.9141 162.984 35.8984C163.055 36.8828 163.113 37.6797 163.16 38.2891C163.23 38.9922 163.289 39.543 163.336 39.9414C163.406 40.293 163.547 40.668 163.758 41.0664C163.922 41.3945 164.156 41.7578 164.461 42.1562C164.766 42.5547 165.164 42.9531 165.656 43.3516C164.625 43.3047 163.781 43.3047 163.125 43.3516C162.727 43.375 162.375 43.3984 162.07 43.4219C161.742 43.4688 161.391 43.5156 161.016 43.5625C160.688 43.6094 160.301 43.6562 159.855 43.7031C159.434 43.7734 158.965 43.8438 158.449 43.9141C158.637 43.6562 158.789 43.3516 158.906 43C159.023 42.6719 159.117 42.3555 159.188 42.0508C159.281 41.6992 159.352 41.3359 159.398 40.9609C159.422 40.6328 159.434 40.1406 159.434 39.4844C159.457 38.8281 159.445 38.0898 159.398 37.2695C159.375 36.4258 159.34 35.5586 159.293 34.668C159.246 33.7539 159.188 32.8984 159.117 32.1016C159.047 31.3047 158.965 30.6133 158.871 30.0273C158.801 29.418 158.719 28.9961 158.625 28.7617C158.508 28.4805 158.367 28.1992 158.203 27.918C158.062 27.6602 157.887 27.3906 157.676 27.1094C157.465 26.8047 157.23 26.4883 156.973 26.1602ZM174.129 20.8516C174.832 20.9219 175.418 20.9805 175.887 21.0273C176.379 21.0742 176.777 21.1094 177.082 21.1328C177.434 21.1562 177.715 21.168 177.926 21.168C178.137 21.1914 178.418 21.1914 178.77 21.168C179.074 21.1445 179.473 21.1211 179.965 21.0977C180.457 21.0508 181.078 20.9805 181.828 20.8867C181.664 21.1211 181.535 21.332 181.441 21.5195C181.348 21.6836 181.266 21.8359 181.195 21.9766L180.984 22.3984C180.938 22.5391 180.891 22.6797 180.844 22.8203C180.797 22.9375 180.75 23.0781 180.703 23.2422C180.68 23.4062 180.656 23.582 180.633 23.7695H186.047L185.555 26.6172L180.598 26.3359C180.48 27.5312 180.398 28.457 180.352 29.1133C180.305 29.7695 180.258 30.25 180.211 30.5547L180.141 31.1875C180.07 32.0781 180 33.0508 179.93 34.1055C179.859 35.1367 179.836 36.0977 179.859 36.9883C179.883 37.8789 179.965 38.6289 180.105 39.2383C180.246 39.8242 180.492 40.1172 180.844 40.1172C181.195 40.1172 181.523 40.0234 181.828 39.8359C182.133 39.6484 182.391 39.4258 182.602 39.168C182.836 38.9102 183.012 38.6523 183.129 38.3945C183.246 38.1133 183.305 37.9023 183.305 37.7617C183.305 37.6211 183.27 37.457 183.199 37.2695C183.082 36.918 182.871 36.4727 182.566 35.9336C183.246 36.0977 183.844 36.2617 184.359 36.4258C184.617 36.5195 184.852 36.6133 185.062 36.707C185.297 36.8008 185.566 36.9062 185.871 37.0234C186.129 37.1406 186.457 37.2812 186.855 37.4453C187.254 37.6094 187.723 37.8086 188.262 38.043C187.746 38.1367 187.371 38.2891 187.137 38.5C186.996 38.5938 186.891 38.6992 186.82 38.8164C186.656 39.0742 186.469 39.4258 186.258 39.8711C186.047 40.293 185.73 40.7148 185.309 41.1367C184.887 41.5586 184.312 41.9336 183.586 42.2617C182.883 42.5898 181.934 42.7773 180.738 42.8242C179.496 42.8711 178.547 42.6602 177.891 42.1914C177.258 41.7227 176.789 41.1836 176.484 40.5742C176.203 39.9414 176.039 39.3203 175.992 38.7109C175.945 38.1016 175.91 37.6914 175.887 37.4805C175.863 37.2695 175.863 36.7422 175.887 35.8984C175.91 35.0547 175.945 34.1289 175.992 33.1211C176.039 32.0898 176.086 31.1055 176.133 30.168C176.18 29.207 176.203 28.5039 176.203 28.0586C176.203 27.8242 176.215 27.5781 176.238 27.3203C176.238 27.1094 176.238 26.8867 176.238 26.6523C176.262 26.3945 176.273 26.1484 176.273 25.9141L171.176 25.8789L170.965 23.875L176.098 24.0156C176.051 23.7578 175.992 23.5234 175.922 23.3125C175.875 23.0781 175.828 22.8906 175.781 22.75C175.711 22.5859 175.641 22.4453 175.57 22.3281C175.477 22.2109 175.371 22.082 175.254 21.9414C175.137 21.8242 174.984 21.6719 174.797 21.4844C174.609 21.2969 174.387 21.0859 174.129 20.8516ZM189.457 28.7617C189.574 28.6211 189.645 28.3633 189.668 27.9883C189.715 27.5898 189.809 27.1445 189.949 26.6523C190.113 26.1602 190.383 25.6445 190.758 25.1055C191.133 24.5664 191.742 24.0625 192.586 23.5938C193.406 23.125 194.203 22.8438 194.977 22.75C195.75 22.6562 196.488 22.6914 197.191 22.8555C197.895 23.0195 198.551 23.2773 199.16 23.6289C199.793 23.9805 200.367 24.3672 200.883 24.7891C201.234 25.0703 201.516 25.4805 201.727 26.0195C201.938 26.5352 202.102 27.1211 202.219 27.7773C202.336 28.4336 202.418 29.125 202.465 29.8516C202.535 30.5547 202.582 31.2461 202.605 31.9258C202.629 32.582 202.641 33.1914 202.641 33.7539C202.664 34.293 202.711 34.7383 202.781 35.0898C202.875 35.6055 203.039 36.0508 203.273 36.4258C203.508 36.7773 203.766 37.082 204.047 37.3398C204.328 37.5742 204.609 37.7617 204.891 37.9023C205.172 38.043 205.418 38.1484 205.629 38.2188C205.77 38.2891 205.898 38.3359 206.016 38.3594C206.25 38.4531 206.414 38.4531 206.508 38.3594C206.367 38.6875 206.238 38.9688 206.121 39.2031C206.004 39.4375 205.91 39.6367 205.84 39.8008C205.746 39.9883 205.664 40.1406 205.594 40.2578C205.523 40.3984 205.441 40.5273 205.348 40.6445C205.277 40.7617 205.184 40.8906 205.066 41.0312C204.949 41.1719 204.832 41.3242 204.715 41.4883C204.41 41.3711 204.117 41.2305 203.836 41.0664C203.578 40.9023 203.344 40.75 203.133 40.6094C202.875 40.4453 202.641 40.2812 202.43 40.1172C202.219 39.9531 202.02 39.7656 201.832 39.5547C201.668 39.3672 201.492 39.168 201.305 38.957C201.141 38.7461 201 38.5117 200.883 38.2539C200.742 38.5586 200.402 38.9922 199.863 39.5547C199.348 40.1172 198.668 40.6328 197.824 41.1016C196.98 41.5469 195.996 41.8633 194.871 42.0508C193.77 42.2383 192.551 42.1094 191.215 41.6641C190.629 41.4766 190.078 41.207 189.562 40.8555C189.047 40.4805 188.602 40.0352 188.227 39.5195C187.875 39.0039 187.617 38.418 187.453 37.7617C187.312 37.082 187.324 36.332 187.488 35.5117C187.652 34.6914 187.945 34 188.367 33.4375C188.789 32.875 189.293 32.418 189.879 32.0664C190.465 31.7148 191.121 31.4453 191.848 31.2578C192.574 31.0703 193.324 30.9414 194.098 30.8711C194.707 30.8477 195.316 30.8828 195.926 30.9766C196.441 31.0703 196.98 31.2461 197.543 31.5039C198.105 31.7383 198.586 32.1016 198.984 32.5938C198.961 31.3516 198.914 30.3672 198.844 29.6406C198.797 28.8906 198.75 28.3164 198.703 27.918C198.609 27.4492 198.527 27.1211 198.457 26.9336C198.34 26.7695 198.211 26.582 198.07 26.3711C197.953 26.1602 197.801 25.9727 197.613 25.8086C197.426 25.6211 197.191 25.4688 196.91 25.3516C196.629 25.2344 196.301 25.1875 195.926 25.2109C195.527 25.2344 195.211 25.3398 194.977 25.5273C194.742 25.7148 194.555 25.9375 194.414 26.1953C194.297 26.4297 194.227 26.6875 194.203 26.9688C194.18 27.25 194.191 27.4961 194.238 27.707C194.285 27.8477 194.355 28 194.449 28.1641C194.543 28.3047 194.672 28.457 194.836 28.6211C195 28.7852 195.223 28.9258 195.504 29.043C194.965 29.1133 194.484 29.1719 194.062 29.2188C193.641 29.2422 193.277 29.2773 192.973 29.3242C192.621 29.3711 192.316 29.4062 192.059 29.4297C191.801 29.4531 191.496 29.5 191.145 29.5703C190.84 29.6172 190.465 29.6758 190.02 29.7461C189.574 29.8164 189.059 29.9102 188.473 30.0273C188.613 29.8633 188.742 29.7109 188.859 29.5703C188.977 29.4062 189.082 29.2656 189.176 29.1484C189.27 29.0078 189.363 28.8789 189.457 28.7617ZM194.73 32.9453C194.309 32.9688 193.887 33.0742 193.465 33.2617C193.043 33.4258 192.668 33.6719 192.34 34C192.012 34.3047 191.73 34.668 191.496 35.0898C191.285 35.4883 191.18 35.9336 191.18 36.4258C191.18 36.918 191.297 37.3516 191.531 37.7266C191.789 38.0781 192.117 38.3711 192.516 38.6055C192.938 38.8398 193.383 38.9805 193.852 39.0273C194.344 39.0742 194.824 39.0273 195.293 38.8867C195.738 38.7227 196.16 38.4648 196.559 38.1133C196.957 37.7383 197.297 37.3398 197.578 36.918C197.859 36.4727 198.059 36.0391 198.176 35.6172C198.293 35.1719 198.305 34.8086 198.211 34.5273C198.023 33.918 197.602 33.4961 196.945 33.2617C196.289 33.0039 195.551 32.8984 194.73 32.9453ZM206.965 43.9844C207.199 43.6328 207.387 43.3047 207.527 43C207.668 42.6953 207.785 42.4375 207.879 42.2266C207.973 41.9688 208.043 41.7344 208.09 41.5234C208.113 41.3828 208.125 40.9727 208.125 40.293C208.125 39.6133 208.102 38.7578 208.055 37.7266C208.031 36.6953 207.996 35.5352 207.949 34.2461C207.926 32.957 207.879 31.6445 207.809 30.3086C207.762 28.9727 207.703 27.6719 207.633 26.4062C207.586 25.1406 207.539 24.0039 207.492 22.9961C207.445 21.9648 207.398 21.1211 207.352 20.4648C207.305 19.8086 207.27 19.4336 207.246 19.3398C207.199 19.1992 207.117 19.0586 207 18.918C206.766 18.6367 206.367 18.3672 205.805 18.1094C207 17.8047 207.914 17.5586 208.547 17.3711C208.922 17.2773 209.25 17.1836 209.531 17.0898C209.789 16.9961 210.047 16.9023 210.305 16.8086C210.516 16.7148 210.75 16.6094 211.008 16.4922C211.266 16.3516 211.5 16.1992 211.711 16.0352C211.594 16.7148 211.5 17.3711 211.43 18.0039C211.359 18.6367 211.301 19.2227 211.254 19.7617C211.207 20.3711 211.184 20.957 211.184 21.5195C211.066 22.668 210.996 23.9219 210.973 25.2812C210.973 26.6172 210.984 27.9766 211.008 29.3594C211.031 30.7422 211.078 32.0898 211.148 33.4023C211.219 34.7148 211.289 35.9102 211.359 36.9883C211.453 38.043 211.535 38.9453 211.605 39.6953C211.699 40.4219 211.77 40.8906 211.816 41.1016C211.91 41.4531 212.004 41.793 212.098 42.1211C212.191 42.4023 212.297 42.6953 212.414 43C212.531 43.3281 212.672 43.5859 212.836 43.7734H209.426C209.121 43.7734 208.828 43.7852 208.547 43.8086C208.289 43.832 208.02 43.8555 207.738 43.8789C207.457 43.9023 207.199 43.9375 206.965 43.9844Z" fill="#3D8A98"/>
<path d="M231.237 9.96457C231.249 11.2108 230.539 10.4466 230.549 11.1466C230.553 11.4665 230.93 11.7519 231.134 12.1651C231.376 12.656 231.446 13.2857 231.368 13.7836C231.318 14.1074 231.215 14.4335 231.077 14.7313C230.704 15.5406 230.108 15.9841 229.157 15.9051C228.254 15.8301 227.344 15.838 226.438 15.7912C226.111 15.7743 225.151 15.4372 225.123 15.6448C225.08 15.9525 225.247 16.1688 225.504 16.2519C225.956 16.3977 226.421 16.5404 226.889 16.5851C227.792 16.6709 228.704 16.6511 229.605 16.7474C230.082 16.7985 230.572 16.9408 231.003 17.1498C231.715 17.4944 231.901 18.0979 231.83 19.0345C231.761 19.9365 231.339 20.5548 230.563 20.9707C230.389 21.0637 230.224 21.1746 230.064 21.2893C229.793 21.4837 229.812 21.7108 230.109 21.8525C230.282 21.935 230.46 22.0064 230.633 22.0875C231.437 22.4632 231.966 23.5348 231.764 24.3772C231.663 24.7985 231.148 24.9822 230.812 24.7202C230.298 24.3195 229.742 24.0075 229.078 23.9396C228.536 23.8842 228.074 24.0531 227.723 24.4731C227.654 24.5559 227.593 24.7191 227.629 24.7974C227.672 24.8889 227.821 24.9659 227.934 24.9819C228.15 25.0125 228.373 25.0029 228.593 24.9971C229.987 24.96 230.883 25.5987 231.357 26.9169C231.914 28.4688 230.714 29.688 229.477 29.9422C228.621 30.118 227.89 29.8112 227.22 29.3153C226.591 28.8495 226.075 28.273 225.594 27.6131C226.054 27.6342 226.481 27.631 226.902 27.6786C227.472 27.743 228.037 27.8428 228.603 27.9363C228.712 27.9543 228.818 28.0055 228.917 28.0562C229.197 28.1981 229.2 28.3674 228.956 28.5695C228.815 28.6203 228.631 28.7453 228.749 28.8734C228.873 28.9975 228.967 29.0088 229.085 29.0424C229.184 29.0705 229.3 29.0603 229.404 29.0446C229.709 28.9986 230 28.9069 230.127 28.5914C230.255 28.2725 230.097 28.01 229.908 27.7682C229.405 27.1239 228.688 26.9583 227.928 26.8997C226.856 26.8171 225.782 26.7493 224.711 26.655C224.469 26.6337 224.225 26.5512 223.997 26.4588C223.417 26.2232 223.205 25.6936 223.425 25.1113C223.786 25.2137 224.14 25.349 224.506 25.4107C225.306 25.5455 226.044 25.3791 226.67 24.8384C226.982 24.5691 227.152 24.2318 227.083 23.8041C227.046 23.5705 226.908 23.4984 226.717 23.6352C226.525 23.7723 226.342 23.9252 226.169 24.0858C225.689 24.5309 225.13 24.6532 224.507 24.4994C223.842 24.3355 223.245 24.0553 222.898 23.423C222.52 22.7321 222.761 21.786 223.464 21.1506C223.609 21.02 223.772 20.9102 223.888 20.8206C224.164 21.0301 224.402 21.2245 224.654 21.3973C224.812 21.5051 224.981 21.5017 225.088 21.3127C225.197 21.1219 225.17 20.9511 224.996 20.8009C224.835 20.6622 224.66 20.5277 224.538 20.3578C224.211 19.9028 224.288 19.2957 224.7 18.916C224.744 18.8747 224.815 18.8396 224.874 18.8392C225.567 18.8346 226.26 18.8251 226.953 18.844C227.213 18.8511 227.484 18.8952 227.73 18.9799C228.332 19.1873 228.67 19.7464 228.578 20.3207C228.493 20.8473 228 21.2419 227.378 21.2764C227.266 21.2827 227.15 21.2644 227.04 21.2829C226.774 21.2917 226.825 21.574 226.872 21.6311C227.306 22.1572 227.988 22.2888 228.58 21.9719C229.978 21.224 230.085 19.3205 228.78 18.437C228.296 18.1094 227.757 17.9279 227.181 17.8988C226.478 17.8633 225.772 17.8932 225.069 17.8549C224.389 17.8178 223.78 17.574 223.322 17.0451C222.967 16.6352 222.892 16.1638 223.08 15.654C223.442 14.6743 224.384 14.1673 225.504 14.3828C226.261 14.5283 227.004 14.754 227.763 14.8767C228.24 14.9536 228.743 14.9602 229.223 14.9025C229.996 14.8097 230.457 14.3205 230.623 13.5632C230.791 12.7997 230.596 12.154 229.965 11.6687C229.445 11.2687 228.836 11.0928 228.197 11.0056C227.501 10.9106 226.813 10.9419 226.14 11.1533C225.756 11.2983 225.716 11.5501 225.739 11.6755C225.754 11.7588 225.952 11.8617 226.071 11.8649C226.633 11.8797 227.198 11.8353 227.759 11.8656C228.356 11.8977 228.956 11.9639 229.425 12.4123C229.766 12.7388 229.905 13.1528 229.772 13.4878C229.627 13.8531 229.251 14.0879 228.769 14.0609C228.422 14.0415 228.075 13.9806 227.734 13.9118C227.005 13.7648 226.283 13.5863 225.553 13.4503C225.241 13.3923 224.915 13.4083 224.587 13.3903C224.256 12.529 224.061 12.011 224.92 11.2106C225.715 10.4703 226.655 9.95357 227.784 9.98154C228.173 9.99121 228.556 10.1614 228.944 10.2471C229.27 10.3192 229.598 10.3793 229.928 10.4346C229.988 10.4447 230.265 10.5037 230.19 10.3722C230.072 10.1911 229.996 10.0124 229.867 9.88873C229.282 9.32751 228.56 9.09252 227.764 9.05204C227.657 9.04658 227.55 9.04989 227.443 9.04817C227.432 9.04805 227.422 9.04139 227.383 9.02712C227.672 8.57062 228.029 8.20349 228.558 8.07463C229.26 7.90331 229.93 8.0394 230.53 8.43286C231.135 8.82959 231.23 9.15697 231.237 9.96457ZM223.276 18.1196C223.114 18.025 223.013 18.0366 222.879 18.148C222.178 18.7321 221.972 19.5109 222.003 20.3778C222.014 20.6845 222.106 20.9672 222.371 21.1524C222.598 20.9593 222.798 20.7578 223.028 20.6015C223.263 20.4422 223.528 20.3275 223.789 20.1879C223.68 19.59 223.853 19.0449 224.175 18.5463C223.864 18.4017 223.557 18.2832 223.276 18.1196M233.82 10.0195C233.839 9.27634 233.913 8.94067 234.187 8.65084C235.088 7.69672 236.679 7.8084 237.423 8.87578C237.454 8.92026 237.48 8.96808 237.52 9.03249C236.418 9.07387 235.41 9.27294 234.8 10.3005L234.829 10.4196C235.042 10.4196 235.259 10.4464 235.467 10.4121C235.676 10.3775 235.882 10.2979 236.079 10.211C236.866 9.8623 237.651 9.89728 238.424 10.2381C239.038 10.5092 239.624 10.8378 240.082 11.3555C240.494 11.8203 240.637 12.3437 240.411 12.9481C240.354 13.0995 240.313 13.257 240.265 13.4131C239.009 13.3196 237.865 13.8478 236.663 14.0116C236.393 14.0484 236.11 14.0672 235.842 14.0269C235.249 13.9374 234.963 13.3182 235.249 12.7795C235.539 12.2342 236.029 11.9791 236.604 11.9352C237.316 11.8806 238.033 11.8845 238.749 11.8711C238.92 11.8678 239.097 11.8889 239.144 11.6668C239.19 11.45 239.104 11.2823 238.895 11.2134C237.592 10.7832 236.323 10.8455 235.134 11.5728C234.407 12.0179 234.153 12.7579 234.358 13.6076C234.554 14.4209 235.073 14.859 235.941 14.9445C236.862 15.0353 237.736 14.7823 238.61 14.5492C239.185 14.3962 239.758 14.2641 240.355 14.397C241.262 14.5989 241.957 15.5619 241.8 16.4109C241.709 16.9019 241.395 17.229 240.995 17.4745C240.509 17.7723 239.977 17.8794 239.41 17.869C238.601 17.8542 237.787 17.7961 236.993 18.0335C236.495 18.1823 236.055 18.437 235.702 18.8247C234.958 19.6412 235.147 21.0396 236.093 21.8007C236.709 22.2969 237.42 22.2589 237.968 21.6853C238.035 21.6151 238.064 21.478 238.055 21.3767C238.052 21.3376 237.898 21.2959 237.809 21.2831C237.624 21.2565 237.432 21.2702 237.251 21.2286C236.719 21.1063 236.394 20.7328 236.335 20.2066C236.285 19.7625 236.58 19.2707 237.038 19.037C237.481 18.8106 237.958 18.8369 238.432 18.8407C238.923 18.8446 239.414 18.8344 239.904 18.8438C239.997 18.8455 240.112 18.8848 240.177 18.949C240.624 19.3908 240.606 20.1019 240.143 20.5657C240.053 20.6559 239.946 20.7277 239.848 20.8096C239.678 20.9509 239.665 21.1285 239.764 21.3094C239.865 21.4949 240.031 21.5083 240.188 21.3977C240.435 21.224 240.669 21.0311 240.928 20.8313C241.544 21.1004 242.095 21.991 242.079 22.7408C242.063 23.4763 241.58 24.0597 240.717 24.3875C239.925 24.688 239.203 24.6239 238.584 23.9745C238.458 23.8424 238.309 23.7301 238.158 23.627C237.99 23.5119 237.866 23.5555 237.821 23.7704C237.719 24.2597 237.936 24.6225 238.292 24.9012C239.168 25.589 240.124 25.5808 241.112 25.194C241.199 25.16 241.284 25.1195 241.368 25.0824C241.617 25.5482 241.446 26.2011 240.949 26.3879C240.444 26.5774 239.9 26.6923 239.364 26.7516C238.406 26.8577 237.439 26.8799 236.478 26.972C235.949 27.0229 235.48 27.2559 235.124 27.6781C234.891 27.9535 234.681 28.2492 234.854 28.6383C234.985 28.9333 235.438 29.1143 235.854 29.0414C235.971 29.021 236.076 28.9308 236.186 28.8726C236.118 28.77 236.069 28.6445 235.979 28.5691C235.736 28.365 235.732 28.1519 236.033 28.0556C236.492 27.9086 236.968 27.7921 237.445 27.7298C238.037 27.6523 238.639 27.6432 239.319 27.5992C238.972 28.0035 238.687 28.3678 238.369 28.6973C237.788 29.2979 237.143 29.7984 236.3 29.9619C234.824 30.2483 233.322 28.8738 233.51 27.4004C233.694 25.9508 234.836 24.9529 236.26 24.993C236.497 24.9997 236.737 25.012 236.97 24.9821C237.084 24.9675 237.23 24.8852 237.28 24.7893C237.317 24.7181 237.252 24.5503 237.184 24.4691C236.728 23.9287 236.129 23.793 235.502 24.0172C235.027 24.1871 234.583 24.4661 234.151 24.7401C233.836 24.9403 233.347 24.7977 233.243 24.4226C233.024 23.6305 233.495 22.5434 234.239 22.1427C234.434 22.0377 234.641 21.9564 234.84 21.8603C235.135 21.7179 235.159 21.477 234.889 21.2845C234.677 21.1329 234.461 20.9812 234.232 20.8591C233.071 20.2399 233.035 18.7745 233.275 17.907C233.399 17.4602 233.766 17.2223 234.154 17.0422C234.913 16.6908 235.731 16.7089 236.54 16.6567C237.341 16.6051 238.141 16.523 238.937 16.4202C239.144 16.3936 239.35 16.2613 239.527 16.1354C239.627 16.0642 239.709 15.912 239.724 15.7872C239.736 15.678 239.672 15.5078 239.587 15.4552C239.521 15.4146 239.373 15.5157 239.261 15.5508C238.997 15.6331 238.737 15.7663 238.469 15.7849C237.627 15.8432 236.782 15.8507 235.939 15.8916C234.642 15.9544 233.901 15.3592 233.655 13.9734C233.576 13.5319 233.587 13.0659 233.616 12.6149C233.641 12.2167 233.85 11.8933 234.199 11.6808C234.303 11.6174 234.411 11.5533 234.495 11.4669C234.571 11.3894 234.746 11.1286 234.414 10.974C234.414 10.974 233.801 10.7627 233.82 10.0195ZM242.646 21.1191C243.374 20.5607 242.903 18.4866 241.928 18.0393L240.84 18.5466C241.177 19.0459 241.319 19.6041 241.233 20.1293L242.646 21.1191Z" fill="#3D8A98"/>
<path d="M1.10526 69C212.72 65.0632 298.897 50.0614 286.142 31.4211" stroke="#3D8A98" stroke-width="2"/>
<line x1="1" y1="1" x2="285.263" y2="1" stroke="#3D8A98" stroke-width="2" stroke-linecap="square" stroke-dasharray="10 10"/>
</svg>
